/* XPM */
static char *_2666d132ba9475e95b4c8351a840bcd[] = {
/* columns rows colors chars-per-pixel */
"128 112 28 1 ",
"  c #BF0000",
". c black",
"X c red",
"o c #FF1F1F",
"O c #170F07",
"+ c #7F1B1B",
"@ c #731313",
"# c #670B0B",
"$ c #771717",
"% c #8B0000",
"& c #730000",
"* c #CB0000",
"= c #A70000",
"- c #B30000",
"; c #9B0000",
": c #7F0000",
"> c #670000",
", c #D70000",
"< c #5B0000",
"1 c #4F0000",
"2 c #430000",
"3 c #5F0707",
"4 c #E30000",
"5 c #530707",
"6 c #5B0707",
"7 c #470000",
"8 c #6B0F0F",
"9 c #EF0000",
/* pixels */
"%>:%=  ;%%:;%; ;- ,**-====-;%%%%;---- *%::%%%= -%:%==;;-=   -=;%::::%%;;;%;;=;%%= -  --**-===- -- -;;--=;:% *--=;:% *--===== *= ",
"%&%;-  ;%%:%;- ;- ,*===;;===;%%:%44-= ,-=;>%=- -;;%=;;;-  -=;=%:&>>>::%%%>%%%%%%--;=-=; 4%==-     =%;=-==%-**--==%-**--==-== *  ",
":>:%=  ;%%:;%; ;- ,**-====-;%%%%;---- *%::%%%= -%:%==;;-=   -=;%::::%%;;;%;;=;%%= -  --**-===- -- -;;--=;:% *--=;:% *--===== *= ",
"&>&:==:%;%::%%;=-**,* --===;%%%%%%;&4  3&<>%%;--;%%;=;;- - -=;%::%;;;;--=;===;;%=*--  -   -==-==-  =;-=;=%; * --=%; * --=====-; ",
":>:;=%%:%%%&&>:;-  ** =====%%%%&%%%: -=>3<&%%;==;;;;;;;-*---=;%:%==-===-=;;----;= =- -=-=======;= * ---;;  *** -;  *** ---=;= = ",
":&:;-%;%%%%><3&;=-   --===;%%%%:&:::-;%>6<&::%;;;;;=;;=---=;==%:%====;=-=%%=-==----=-=;%%%;==;;;= * -- ==*,,,** =*,,,**  -=%=* -",
":&:; ;=;%%%><>&%;;----=;;;%%%%:&%:%:=%:<5<>&:&%;;%;--==;;===--;%%;===;===%:- - ----==;;%%;%;;;;%%= =--   ,**,* * ,**,* ** =;-**-",
"%&%=-:%%:%%>>&::::=-==;;;%;::%;;:%%%%:&57&>&&:;;;%%--;=%%;==--;%%===;;;--%;- -   -==;%%;=;%%;;%%:%:;%%-***4,    **4,     --;-**-",
"%&%=-&%::%:>>::&&%%==;%:8%;::% %&%%:>>572:>>&:;=;;; ;-=;%;;===;;%;%;%;==-;;==%==---=;%;==;%%;;%:&:>&>%==  ,**,,   ,**,, --;;;  *",
":&:;=&:::::&&:%&>:%===%:&%%%%;;=%&%>>5722::>>:%;%;= -==%%;;====%:%%;;;-=-===;:%;-  -=;;=-;%%;;%:>><<1>&:%:;-- =;%:;-- =;;;%%%=--",
":&:%;&::::&&:%%::%%===;::&;;;;:-%&:<<721%::%<&:;%;--=;:::%%;=;=%%%;==-- --==%::;-* -====;;%%;;;%&><1&>&:%%:%=-=;%%:%=-=;%%:&&%%;",
"&&&&&:::::&&:%%;:%===;%%:5%;=;:%:&:>1221-;%%>>&%%;==;%:&::%%;;=%%%;  - * -;;;%%; - --==;;;%;==;;:&<1>&:%%%:>%-;%%%:>%-;%::&>&::%",
"&:&>1&:::&>&%;-%::;==;%:&&::;=%%%%&&122%  ;%&>&;;===;%&>&&:;%%;%;;;- -** ==;%%;; =  ;=;%%%%;,=;:::<&<::%;%:>:-%&;%:>:-%&&&&&&&&:",
":::&3>&::>>:%;=%:&;==;%:>>&%;;&&;=&&612>-==:&>>:%=;;%%&&&&:::%;%;==  - **=;;::%=- =-;;;;;%%=,--%:&&<<&:%=;:&:%:&=;:&:;:&>&:::&&:",
"%:%:&>&%:>>:;; =:&%-=;::>3>:;;:&&-:&&61>%%=%:&&::=--=;%;%%%:&&%%--   -  *=;%&:% --%;;%==;;%=*- %&<>>>&&:==:::&::-=:::%:&>&:%%&:&",
"%:%:&>&%%>>:;;=-:>;-=%:%:66&%%:&%-;:&&1::%=%%&&&:=  =;;;%%::&&>%--   --  =;::%%=----=;=;==%= ;=%&<7<&>&&=-:&>>:%--:&>:&&:>3;->&>",
"%:%%&&&;%&&%%-==:>:;;%:%:63:%%:&&;=;%:3:&%=%;:::%- -==;;%:&&&:&&== *---  =;&:%%;; ====;;%=;= ==%&<5>&&&&-=:>&>;%;=:>&&::::&;-:&>",
"%:%:&>>:%>>;% ;-:&:;;:::>&>%=%;::;=-;;&:&:=%;:%:%-  -===;:&>&:&&---* --  =%:&&:%;=;%%;;%%--;== ;%&:>&<>%- =::&;&% =::::%;%:;-::>",
"::::&:&:;&>;; ;-%:&%:&:&>&:%;%:=;%;=%%::&:=%;%%%%   ---===&>&:::-- * =-  ;%:&:%;;=%::%%::=-;== %%::&:>>%- %%;%;:> %%;>:%==;; %:&",
":&:&&%:%=&&;; ;-=%&::>:&>>:;;%=;%::-%;%>:%=%=::= *      -=:>&:&:== * -=--;%:&:%%;;::>>&&:;;- = ==%:&:><%=-% ;;=:>-% ;>:%;;=; ;::",
":&:::%%%%%:;==;=;%&:&>:&>>:;;;% =;%;%%:>:%=;=::= * ,*****=:>&%:%==   --- ;%:>&:%%%%&>>&&:%;;-* --%>>&>>:;===%%%:>===%>;%;;==* ::",
":&::%%%%;:%;==;==%:&:>:&>:%--;; =;%;;;:&>;=-=%% * *,**** =&3>%::%=* * **-;;%:&::%%:&>>&:%%;- *-* %5&&>&&%-= %%:;1-= %&;&;;=-* ::",
":&:%;=;%=:;% -%;=%::&>&&>:%- ==-=;=;%%:&>;=-=%% * ** ----;&>&;&::=* ,,,* ;%%:&&%%%:&>&&%%;;= ** -%&:&&:1>-  %%;->-  %%;:%= -**;:",
":%::%-*% ;;- -%;=%::>>3>:%%=  *-=;=;;::&>;= -%%      ---=%:>&;&&%; =**,,-&;;&&&%=;%:&&:%=;- *4, =:&::&>1>:    =*%:   ;=:;-  **=%",
"%%%%; ,= ;;4* --;:::<11>:%= ***-==-=;-%&>;=, %% -*--=== =%:&%=>>;= ;=  -%&;%:%%= =%::::%=-   ,,,  %::>>5>&=-*,-, &=-*%%:= *****;",
"%;%%%,4-  =9* --%&:%<71>:;=***,-==-=;;%&&-=* ;;-  -;;;==-=%:;=&:=--=;;==;:%=%%; ,-%%%:%%-  - ,,,, ;%:&>55&;;*, , ::;*%:% *4 ,,*=",
"%=%:%,,*=*-,, --%>:&<21>:%= -   ,  ==*;>>-=* =-= -=;= --==;%=;::;--%:;;-=:%=%%;,*=;%::%%-**=-  ***=%%>>>1::%  **;6=% %;;* **4, =",
"%=%&;*,,-  * * *;&:&<21>:%= ,**,4*  **=&&-= -==-*-===-*   =;;=%%=; ;;%;==%%%-;-,,===:3==-  ==*,4* =;%>>52>:=- , %:%=- =;   ,4* =",
"%%%:%*,*- 9- ,, ;::>12<>:%-,4**4,  =-9o;:-= --=-=;===- ** ====%=;; ===%;;%%;;-,**  -;&-=- * =-*94-=;%>>>>6== =*,%:;= ,---  ,,* =",
":%::-*,*-*4- 9,- %>>22<&%%-,4-*49* *,9*;:*=*- --;;%;-  ,* -- ;-=;;*---;%;:: =-*- * -;:--- ,,** 49*-;%>>&:: *-;*,=%:*-,  -  ,,  =",
":::;**,, 4,=***--=<>22<&%;-,,-,9949 ,9 &;*=*-- =:;;;===-    *- -%--   -:;%=-== - *--;:  -*, ,4 ,9*-;%>>%%:%==-*,=%:== ** *- *  =",
":&:= *,, 4* ***-;=<<22<&%;-,9*,,*99*,,=:=* * --=:%;;==;=  - 4--=;--  -=::%=-;= =,**-;;  **=,9,,44 =;%>>:=>;%-  4 %:%- ,*,, -***=",
":>:%-**,*,  ***--=<122<&:%-**,4, 44,4,=%-* * -==%;;;;%%-  - 4*=;=--   ;:%%--=;--4, -= **** ,99,**-;;:>>% :;; *,94%;; =*,,9 ;***=",
"%&%:-**,** ,, *-;;3122<&:%-* 4,--,,* *=%     -- ;;==;;;  -- 4,==  -- -;&%&=-;;-*9*=*-** ,* 999  *-;;:&5; %:%,,499==%,;*,,4 ;***=",
"%&%%=,*, - ,4,, ;=&11<<&%= *4-4=-**  ;-%**     *==-===   -=*4,=-**  * -%&&====- 9*;,= -*44,,9**4,* ;&>6;;%:% 4,4*--% -**,, -***=",
"%&%:;,*,  -,*,4*%=:11<<<; **9*==*;  ==-=*  =- *, - --  * --*4*-=  *4,- =%%%=-;; 9*;*-, ,4,4 -*,4,4,;&>3;%%:%-,,,   %-   *4,,***=",
":&::%*,*  *** 44;=%3&3<>;,,*,* ==== *-  *= ;-**, --= * **- ,,,*,-* 4,   ;;;= ;= , = -4 94** -*,4,44=&>&=%%;;-,4,**;;-*,,*49,***=",
":::&%*,,  *,,,49=;;3:&3>;,,,4**** -*** ,*%;;;*4,-- --****  ,4,,* *,44*  =-;=-=-  -=-=4,99,44*,,9444;:3%%==== ,4,*,;= ,4,*,4* *,=",
":::>;-*,*-*,,,,9*; &&&>&% ,44,,** ,,*  ,*%%;: 4,----  * *  ,4,,* *4, , *==;- =- =;-= **9,*,,,4,44,,%%6;%=--* ,,,**-* 4,,,*,*-,,=",
":::&;*,,--,,,,,9,;-%%&><:-4494* **94 =-,*%%;& 4 - ==    ***,,,,,*44,,*    =--;-%:=--*, 444**4,44,9*%%6:;   4 ,,,,- 4 ,,44,**-4,-",
":>:&;*,,= ,,,*,9,:;;=&>>&-999   ,494---*4 -;& 9 =-= *--*****4,***,4*,*-- *=--;%3>;-*   44,4494,449*;:3:;4*;, 4,,4**, ,494,, ;9, ",
"&:&>;**,  *,4494*:%-:>>&&&*99*  ,4944*=*,*->3*4,=;-**--**  ,44***44 **-= -;- >>1>%-* -*4**, -,,,,9*%>&;;9,;  9,,*,   ,494,,, 44 ",
">:>&= *,, **999, :;;%6>&&& o9* -,49,99**,*->>,4*;%   -**** *44*  44   --  %- &&1&&=, ,4, ,,-= 9499%%6:;;**- 444 4,* 4,,4,,4*44, ",
":>::=-**,** ,9,*==%;%33&&&;,o9 -*994,4-;,*;&&44 ;;**  =*, -*,,,*-,9  --;-=;--:%>66;*; ,**,, = 994;%%6:%; - *4,4**, *4,,,* ,*4,, ",
"%>%;;=**,,, ,4,--=;;-&33>>:*o9-= 999,-==, ;%:,4*;-* *- ,*- ,,,4*-,9** * -==-=%=&11%*=- ,*,*=- 99-%%:&%%;****444,-, *44,,* ,444,*",
"%&%=;-* ,,  ,44--=;=-&53&>&*o,--*,449*%-*-%%% 4 ; * * *   ,4**4*-,o9  **- =-=;=><>%-:- 9,9,-- 49 %&&:=;;*, *94,4*, *99,,*,44,,,*",
";&;--**-*,*,*44 ===- &73>>&-o4   -*99 =*-;&===*,  -  - -*,,,  ,,,*4,  ****-==; &>&:::- 994,*,*,,-&&&% %=*,**994944 *944,4,,, ,4,",
"-%-=** = ,=,4,,*;=- *31>&>:=*4,**- 49,-*=;&;;;-4    *---*4,* * *49*   *, ==;=;-%&&&:: *,9,-,, , ;&&&% = ,, -9449,,*-9,4,4,,, *,,",
" % --* -*, 4,,**=  , <3&&>&-*49=- ,,49, ;:>:::=4=-------*, *,, =,4* -=**=;===:%%%:;%%44;99  ,,, ->&:% -*4,  4,*944, 444,4*,44-,*",
" =  = *,*,*,,,,*=--4-<&:&>:-,,4 ; 4,,,,=::3&&:=,=-- *--*4, 4,,* ,4** *,,*==-;&&;;%;;=94-99  4,,*=>&:;- ,*,  ,,494,4 ,4,,44444, %",
"* * -,,*,*,   ** - , &::&>: 4*44 =*4,, ::&&&:%=-;--**  44**44,***4*,,,,4,;=-%&&;%;-%:,9*94* 94*,-&&:- **44 **99494,**94  ,44,4,;",
";-;;- ,,,**,*,9** *,*&::&&%,, ,9,, ,**;&:::%;;==%- , *-*4 *44,,  444, *4,;=-%::;%;-;:*,,9,,*,9***&&:-** *,***9949,,**44*,,*-;4,=",
";-;=-, ,,**,,,9,**** &;;:%=4,*99494,*-%:&%;=-%;=:; , *-=*,44,44, ,444 ,4*;=;:;-;;;;%; *,4,,,,9,,*;;;;** -4,,*,4*44,,*,*,,,*   , ",
";=;= ,  ** ,,49**4*,%>-=;= 4**49949X,=%%:% --;%;%=-*   -=,4,*-4,*,49,-*4 :;%;- ;;;;%=  *4*,,49,,, =;;*, *,4,,, ,99,,,,4444**,-**",
"=%==,, =-**,,9*;*,*,&&--%=*9*  9o 49,-=%&%*-;=;%%- ,,*- *44, -4444,*=-*4,::;==-;==%% --= *,9444,4,-%=,, 44,*,*-,X4,*,99944,*, **",
"-=- *,, - ,4*4=%*,*,:%*;;-94 -=99*,4  -%&:,-;==%:= *- -*4444==,44, *- 44,%;-;=-=-%&%  ==--,9444,,4 =-,**,,, **=4X,* *9999,,,,,**",
"-=-**,,*  *,,* ;-*,4;%=;:-o9 -=94,,,   ;&&;=;= =:; , -*,,44*-**,44 ** 44,%=;%;=--;>%- = ,*;4o*,449 - * *44, ,4=,94  ,,494* =-,**",
" = - 4***- **=, -,49*;*-: o9, =,4o9,-- -%&:-%; =:%=,,-,**44  , *4,*4, 44,=;-=;-=-;&%= ;*444o,=*449 =****49, ,9=,44  ,, 94,,=  ,*",
" = -*4,;=*,, ;4, *44==, %*4*, -=*oo,*   -%:=%; *&&;,* **,494  ,,44 ,4**44 % *;===;%= -  ,994**44 ,,-***494, ,9-,49, ,*-494,-* ,,",
"-=-- 44;=,44--4,- ,9==, ;%,*** ==4o94  ,*=%  = *&&;*, -*,*,4 -4,,*=,4, 4o*% *- ;=-=-,-- *9,** ,, * -,,,99,*-**9 4X4-**=49, -,*,*",
" ;  =*9-  4*;*,* -44 =-,=:=,  , =,9o9 *,, =* = -&%= = =**  , *,4 %-4, =4o,;-* *== = *** -,4*,4  *-; *,4444 *= X ,44*=4=*9*==*,,,",
"*=* ; ,4 *9-=9,-  4*,==*=% ,4*,, ,,,,-*,* * -4 -&;--;-; ,*- ,*,9 -,4 - 94,;-*- -=*-*,4*, ,4 4* 4,-= *,4494 *;*X9,,9*;9=,94;; 44 ",
"---* * 9*,9 *9,= *94*=-,=%*4,-,4***-*,   *,*-4 %;=- -- ,4*-;* 44*,4, ,4o9*; 4 *-=, *9,99,44,99 4,-; **49X9,*;*4X,9**;9-,o9==*4* ",
"=-= , -,-49,999% 449 ; *;= *94 -  ;*o, - , *-, %;--=  ,,, =**=44*,49-*o44,=,4 *-- ,*, -4944**,94  = ,*, XX4* , X*,=* *94494* ,**",
"=-=-, -* 44,9X9=-9,4*=- =-,-,9,,4 -4XX--,4,*-,*%%--* *4,*;*,4*9X  4X  ,49,=** * *,49 =499,44499*-, *=**-944 ,,=9*,  , X,,94, 4 *",
"===-, =***,*999 ;4*94=-*=;*- ,*94-449 % 44,-*,*%%- 4*,4*=%*4,49,-*,X* *,XX=- -- *999,%*4X4,4944 = = =*-,4,9-4,*,*4,-4*X,,4,* , 4",
"=*= *---*=, 9-, %-494*-*;-,-=*9X,=,94=-*4X,=*, ;:-*,,,,*=%-,,44-;, ,*-*9o9  -==-*994*-,,4X,49,,==,*== -,49*;,4*9*49;,*4,9,,, *-,",
"=-= *--;*=**, * ;=9994-;%*4 %-XX-;49,=-,9X,=44,%: * ,,  -= ,*4*--*,-- -94,* ;;=- 994*- *49*,,9*%-,,;---,4,== 494*,9= ,  9 94-, ,",
"= =* --%*=  *,--*-4494 %;94*= 4X;-XX*; ,9X9%-94-&=-=,*, *,*, ,-;*44= , ,94, %%%-*9X9, **4X *99-;-,4=*==4,, ,  X44,X, ,= X-4,%44 ",
"---*- -;= =- -;-,*X99,=;=4, ,*49,*9X4 ,,4XX&% ,*%* =9,  ,4,, *-=,4* *, 9o94-:%& *XX9,4*,4X,444-*-*, *==,,4,4= X49*X4=,*9X * ;99 ",
"---, = ;=,;- -;-,*,9X =;=4--94=,4,4944,,49X:%;4,;- -*,* *4,, , -,,,,,4,,oo,-:%:*4X99444,X9,49=,9==, * *,,494  9 9* 4 4*X9,-=*94-",
"=-=,,-===4-,* ;*,4*X9===;,-=, =4,*49X4,99X9&;; *;**= ,4* *,*-=,**44  *,,9X*=::&-9XX99,,,99 *9; ,;=*=**,,*,94,   9--4,49X4** -,,,",
"=-=*9*=;=,=94 ;* ,4X*;-==; -;>-X  44X9,,,44:- ,, ,-=-* 4*49 =;4* ,4  *,*,4 =&%:=*X94**,,99  X-&== ;- ;*,*,X,,, 4*-*,, X94*** -,,",
"-,-*9*; -,-94-=9 ,*9-:= -;=* ::* -,9,**4 *-; - -*4,4* *, 99=;%= ,**-*,9 ,,-%%=;;;*44* *,44=*9%:-*=;  ;*,**X9,444=;=9, X,,,,*-%,4",
"9,9,**= =4,99-=9 -*X*:= =;==,;%,4  *,,,9 ,-; =%-;-4,,,=449,;%%;  4 -,**,4,-%%;;-*  44,,,,4-,9%=*, =  - 4** X,4 ;=4-X, 994 -**=,9",
"999,-*  ;-999-=* -49,&==%%==,==94,   X,* --%-;%-;*4,,4 494*;%%;  4 ****,44=%%%%-   ,*,,  9,4X;=*, %- - 9*--9*44= 949*  4,  * =,-",
"999;   %%=999-=**=4X4%==%%=-  *49,4  44*  *  %;==49,44 4,== ;;= 99,*,,-*9 ;:;= ,,* ,*4*  9,49=*4* ;-;:494-* 4;44=44 4, 4 -*=*,,=",
"9X9;  *;:;499,- *= XX===;===-*4*4 4 =*,**  4*%%==494,4*,, -  %- ,4,**  *9=;:; ,,  X**4 , 9X,-,*4,,== :4 9;=;*:; %49;*444   ;*,, ",
",X,=4 -::=,--,- *==49-=;%;=--:: * ,,-=**    4-%==499* ,,  *    ,  *,**  4;-:; 4,, X* 4 ,,49,;4,,,*-=,-- 94-;=&: &,,;=4     ;,**4",
"*** 9 =%:*,--4,,===,*:=;%; **=-=*,   =* *,*  -%-=4,94- , ** *     ,,   * :-%;*9,9, ,* ,,,44*= * ***=,:--994==-& &*,==44 * -;,-49",
"     94 X9 %-4, ,%-- :%;=-,4*4=11 9 *   ,,,49  *%4=,9-%=-,,*  *,,**    9=%;&%9,,   ==X4,,, =;;-**** ;,-;*44*;;- & ,*;;44 ---%%4X",
" -   99  * ;:%-,= *  :%= *4XX44=1%994* 4,* 49  4  49X=-%:*4,   **-     9;:%>&,9,;-=; ,,**4%%;&&***X %,-%=49-;%;,%=*-;:;44  =%=**",
"    99,  -4-%%49*4*-;;= ,49XXXX=1%X9X   4 :44**4  -X4- :<*99 -----     9:&%<<X9 ;-=;99 -,=%; <%,*9 ,-%;:=,,--:%,%4 --&:;4  %=- 4",
",,, 99  * X4 X  9X4&;-*X4494oX4:2<%4o4 -44-44,* , X*=  :=*=&&--   &&& 9,1%=1=X4 ;,;%,99 =  -%:*9*9* %%;: *,-,&:;-X,-,-&=4,-:* -*",
",,,,X,;;-*4X 9-944 <=,9X4   9o %%<<&o94--  9,* ,  9X  -%  %:&: ,,=:>1-9 >=-1%49 ;9%&,99 = -%&-*99* -%%-%= ,9 &:;-X,9 ;-4 9;=  - ",
",,,,9=%%;**o9**XX;;%;XX   , 9oo- =&1:o9 =- --,&==- X444- -%:&&=44-%<1&99<- 21  :& && ,  *-%&&* 9, *=;%;;%=*,;&:;-*X,;%; - ;-- *-",
"9,999;%;%**oo*XX9- *  4X,   ,XoooX 11 o --, ,-&%;= 9  *=--;%::=4X4-<1%99& 4<<=&1<- &- -,4=%%< 9999X -%;;&4 9%&;;**X9%:% -;;-&- 4",
"9,99 ====-,4ooXo9** -%499 -,9,49X9X&12-*   99 =-- 4 -=%=-;-;:&:4XX :2:9 <:%&:%%%%  =--   %=%:-X4 9 * %:;&X, :&;;*XX :&:  %%=--- ",
"9999 -  ,9,- ,  99- -99,,,99,9  :=X9&224X4-   99 4 =-=::%-;%;:: XXX%2<*%:=:<;*44XX4=:  =-::%&%X9 ,,-%>:;%*X &; ;*XX &&:,-&:%--  ",
"999999,- 9 && 9  99= 99,-,99,994==X*;222 9-:&- --=><:--;:%;-;&:=4X4:<<=*  %< X =&==:>::&%:&::-9  9 &&:;;-XX*;; ;*9X*;&;;-%::%- ,",
"9999999999 :%% %=9,  ,9,---,,,9,4=44=%22<4-%:&=1&=<<=  -;;--;;%=%=&:%1:*-;%:=%<>1>:%=%=--;%%&*9 , ;<>:&:*9X  -;; 9X  ; ;;;%::&-,",
"%&-, ,,,,,,  =<<::%&-,-,,,,,,, -444X:-&22:4-%=-=&=*&& *-%49%:-%%%%=%;&1--%:::%=-=:<*9XX4=%-%:*9  -=>>&&: 49 --;; 49 --;;%%&&&&;;",
"&:&&=,,,,,,99*&:-=&1>:&--,-     X4X*-&7722=X-=: ;:* :%  :=99:%;;%;4*-;1% ::%&=99X*&: 99-<=9*<=9 =,9=:-;%+@&&&&+:+@&&&&+-%%&&1>::",
"-4-%:=& 9-- 9 1&=  =%:<1>&==-  X44 %2777722 -==:- *-- ; -&*X-1;-&%99*=21%:%=&:=&&-:1>,9%2&9 <&- - 9:&#36111122>&111122>&- =:%&:-",
"X9X44-%%&&:-  -=%-*9X9-:<<::%=-*%<227<: =&21-=-&<49::X % &: %1%=:%49,%22&;;-%&<<&<1:&%99&1%=:>&---&><6559:::::&<::::::&<>=44  -=",
"999994== -%<&=44-::499X4=::&<11&<2<::99-X%22:--:2=9=244:=:11<1<<<<%:&:&2<;-::;-*4-&<&:,9,-%::%=>&=%>%=:< 944XXXXX944XX*=<1:  X44",
"- - , %= **-&<% 9%1%9999X4*%:&<<221& 9,-  <22&**<-9,<: %%&%:::;-%:%%&=-22:&&:&<%- -&1& --99:1,9%-X*&:%&1& -44 4XX -44 4X*:1>& ,,",
"111>%:1&%:;4*::;--*%=4,994-% %%=%12:99, -X:122*4:-99-2%=%;;%&:49X  4 :=<2<:;-;-&1<=-<&=>1: :1-9- 94&&&<1<11221>%<11221>%*%&&2&::",
":-::%&:-** *4 44;;X*<:-=&&%==-== ;&:49,,%X*122<=%:&,&<9-&%<222%- ,  9*=%&***** =*&&- <= %&&:&&&>&:><<<&&&%%:::::&%%:::::::::1111",
"- -=%=*99*&%-   -=-=:= %<&=-%=:&;%%<: ,-1=%21%1&9  *&&- <= %222221>& X*%= 4   ,%:X=:-1 9 <&:%%121<:=:% &=XXX4444XXXX4444* -%:<21",
"1:-= %&&:%%:<<:%%%=;;==%%*X %:&%%&&&<>&&2*%22;<2&  4X=:-1 9 =%&122222&&%$#22122<%O %:&= :<:=-*;=*--%<:%<<&:&&>>:<&:&&>>:==  -=:1",
"11:=:1<1<:=-122<&%---%:%=XX4:%;;-;::<11:2&%12%:1<>>1: %:&= :%&&:::&222<O11121O222O<:%%<:<2&:*9 %=;%<22222222222222222222221&% *:",
":11:%11221<%:1221<= %<&&&=,=1&:=-;-%:&1<<<&<2<:2%%-<2<:%%<:<%<122-;;=221111<2&2222O21<122211&-<1<<2.2221<<&&&%%&<<&&&%%&<<1221:-",
"&<&::<22221<&<2221<%:<2&:::&<<11<:;;;::&-2222&&1:- -%&21<122&<22.2&,-22::21221OO11.<<22222:&22221122222<= ** 4**= ** 4** -%&1221",
"1112<<1112122222222&:<1<=%:%- &2.21::%- ,22221222<% -%<<22222112...221OO.O:==;1O...=<22222- X<22222222222& --  --- --  -X---%%%%",
".2.21<&&<21122222.21&<21%=%===-12.2<:=4*-22222222222%&=<2222211222...222OO<<1>O..OO:&222..2-,;..22222222221&&>22221&&>22::&&<%%<",
"21222112221>12..&.2211<:%==&<%=-&1:%& 9,122.222.222..2:&222..222.212...O.>&<1>2...O21222....&2.222222222222222..222222..222<2222",
"12122222..222...-.2222<<<&%%%<<<2%*%<=,-2.2...22..2..221222..222.2>>2...2......O..22222222....2222..222.222221&2222221&2.2222222",
"2.22..22222.:<.=,-.2..22222<&1222==::<&=2...2..22...22222222..22..>:22..OO.....O.O......2....22......22...222:>...222:>..2222222",
"...2..222O2:%%11-,-...2.22222222<&::%%112....O2..222.......2..2...2&.22....O2..22.............2.......22...2.>1....2.>1...222222",
"212..22222:2<%:2>,&222>.22.2222%&221<%:2.2....O2..22..........22...;.22.1...2..22.......................2....22.2....22..222.222",
">>>2..2222>22<::&-%11&>.....222:&2222<::.2.1...2..22...............2.2..1..........O....................22....2.22....2...2.222."
};
