/* XPM */
static char *_f553ac3250d491cc822154d9c9156e2[] = {
/* columns rows colors chars-per-pixel */
"128 128 15 1 ",
"  c #00006B",
". c #000053",
"X c #00003B",
"o c #7F0000",
"O c #000047",
"+ c #E30000",
"@ c #CB0000",
"# c #B30000",
"$ c #9B0000",
"% c #000023",
"& c red",
"* c #000017",
"= c #00002F",
"- c black",
"; c #00000B",
/* pixels */
"%%$@@&@o=O .O...O @ X$ ##o  .XO # $@X%.X.$o $#o;O$o.oX% # O  .  .+@%.OO@#.......  .X=.X..  #o .OXX=% oo X#&oX .X$++#. O oo#.o&#=",
"X*$+++OX.o .  .O @@X=  $$o   OO #o$@=XO o$**$&# *  . .Ooo X o.  .&@-..O@+.O...O.  OXX%..OO $o$ ..X%%.  .X#&O-..O$&# OOoo @o% +@%",
" *.#+$-. .  OO. @$ .X.%%OO. $oOO$o@+.%##%oX% +&+$$ ..  ..  . .O X+ -. .#@ X. .X o OXX%XOOX@# oo ##.= ..**+@*O .Oo@$X=..$@ X-.&$X",
" ..+&$*O  . XXO$ X # O OXX**++   @+@  +.X@o *+++&+$O  ..O@$Xo ooO %% ..$#   ..O. o..%%X.X.$o.O.+&@#.X=X*$&@  o.  X=X ..#@ %*$$. ",
"XX#++#*O  ..OX.  .@& %.XXX**@@#@ $+#$#o; @.%-#@o@+@#$O... o   +#XXXX.OO $.....  .o O%%XX..oo.X +$o@#=%=%#&+@@oX $O%.  XOoo. o  o",
".o$.#@.. O.  .XXo$@&#%X.=X%; $@+OO+$o$o-o+O-- +$=O+@X. X;%@&$o&$ .OO.XOo  ....    ..%%X.O # .X. %o@ %.=- &+@+@$@+ X  ...o+oO .o+",
"O$@oo@o$o oo  O  *X$$.  .%%- &+#. .*.o.-#& *;O++.-$$...X*- &@* @$.XX.X* oO. ...o#..O*X O.#@.O$$.X.o .O%=$+# #+++&@ .X.$  + %.%@#",
"*$&+#@@#@#@#@+@.XXO  .$$.X=-%+&o$#.- o.o+&o%- +@ %$oOo O.-.&.-##=  . O* .X O.$  o..O*X.O%  %#&#**.. o.*$@# *o@&&&&@ o  $$oX.%o@=",
". &@#&#$+OXX.@ ..X.o .++#%%OX@&X-..*o#+@@+#.*. o$.%Xo@o .%#o-%# *.o  OO X. X oO o$o.%= .% X%+& *X..  **@+#.--.+&++&+#X-@& .OX++.",
" $&@$@o. XO.. o ... ..#&#; &O.&O-X o@@+@+@.%XX%.o.O  #+ %@+O;O+$;X  .. o. .Ooo.%#&+ ;* .. X%#+.=. $ =-;@&+ O-%@&@+&&$*-.# .O#&+$",
"  ++.  ..  .   ..OX. . #o*X#=X+ -X#&+  +&.-O O=X.O. X$&#$&@** @$*O .OX.  . o .X;@+..X*; +o= $$o###$ O-%+&&@#*X&@X.+&O-OO$#OX+&+ ",
" O#@#  ..  ..   .O=......XO$%%@o;O#+@ o@#-X.O.X=...XOo@++@O-....%.o..XO.O #o%O.X ..#.-- +@oX.#@++$..X-o&&++&.=&o-- o==OO$$OX@&&o",
"oo$.  OO.  .X    .OXO  OO..#o*  X  o O-O O...OX=O..=.o  o$ Xoo..%  .X.  .o O... .. #O%;-$+.*X #&@**. * ++@##*#@*%=O.. X #oOX#&+O",
" $ ..  O  . O.$ XO...  . O%o %=  @o o*. ..OX..O%Oo -$#X*  . #   X...X .X..X  X. .=. ..*- o.X-*@& ;.  -*. *--O@ *..XXo %O  . o#@#",
" ....  oo.  .. .=O  O.O..X=XX=.. oX o=X .  OO.O%X+.=+o.=  X$$.  .  .Xo#.%=  X%O  O.  X*X.  OX-#+X%  .X%X%%X%% ...XXX  O.OO.#oX++",
"   ....    .O..O.   OX=  .XX*.#$$oX= .O.=@@ =XXX o-o@XX.o  # O  ...O.oo %X .XXO.  Xo@O%..  X%O$ =.o   OXOXOOXXX.X..=. OX.XX+# @#",
"$@o  ...   ...O. . ..X%  ..X-o&++$.%o$OXO@+ *XXX.X-.+ .  .  .=#+o..O .. XX OXXO.OX* @oXO   O.   .O  . .XOXX.O..X  XX  OX.*X+o.XO",
"@+ .o   .   .. .....OXX.XX. X #+@$o=.$.O#+..X.X..=- +$%  .o  X.#+.%.OO..O. XX.O..X-X+@OX   ...  .X.#$ ..OX... XO# %.#.=O.=o X  -",
"&& .o   .. .. oO....X=..X;.@.*O+#X$$@o.o@ %..%%. O*= .. X.    %.o.OO. .O...X....XX-o&+.. ..X   o .Xo$     OX. %=o@$++ XXooOO.ooX",
"@@.=.   ...   .......XO.X%  *-%+@* @#$*X  ....*X .XX.O o..  . o .o O  ...X..X.O% O-@++@.O .%o$$#  O=.O +$%X. o.*.+&&& O+&@%% .o#",
"OO... o   #oX.XO .  .. O;X@o-*%o+# $+.-X.. X  %%  X. O.       $#.  .OO  X..O%o#$ .o X @.% ..$# .  oo%*++**    .**@+++@+&+o=.oOo+",
".. $.X o.$+.*.O  .  .  %-$&@%*=% @@#.XO.. .X$$.. OX...  o .O.$#$  ...O oX. .XO#+$+@***XOO   .X $ Oo - +O= ..O  =o@$+@+&&  O +oo&",
" . O. $o ##.X.... ....XX  . o O*-=@@*. .O X &+#@o=.OOOO $oXO. o o ..  O.XO.. X*@+o.*X%OXOoo =O  ..o O#o$++.X#.* o*O X#&+o.- + $&",
".  .o@ooo## X....   ...  %%Oo# *X*X O.  ..%X@+#o%%O.O.=.#oOo XOo@ XO$#X= oOO X%# -=O=XO- @@.%.   O.X#@o@&@%O#XXo.%*-- @&@ -. *o&",
"#o $#o.oo . X.O. o  XX o X.  #@oXXX.OX... .%@+.-XOX...X. o$#$%O  .=.oo X. .  X. XO.X*XX- ++ *.oo  ..$$. $o.X.. .  ..**@+o%-..OO@",
"o. @&+#o O .X. O$$..O%o#X. = +&$X*.oXXX   = &#-%OOXX.O*X@&$ o........ #.X ...O.  ..O%=O**o#%X oO.##X%...XO. o ..    *=#.*.. .o  ",
"=o$+&&+#oO o  oo+$=#.O@@oo.%.##*%X  .** o X$&X*.XXXXO -O+#X.$o  . ..   #oX. ..O... oX%.%*OX. . ..@#%= o  =.$ X.Xo$. %%++.o$. &#O",
"..#&++&+o=X++$. +@O  % &@   * XX.X.o %-@+ = @.=O.XXX. **+#-Oo.   .Xo#*X##.X   .=.   X*o =*.#$ .. ##..o$ O% # ..%@#Xo;o&+X  #@ XX",
"O-.++@@&@X*+&.XO.o ..* +#O  X  o$X=.O .$@#.%.o ...XXO.*%@o%X..  XO#&+.Xo#$X%  X.. .  =..X%Oooo.%.&@.   . *$+ =..o %=X++ *.*++*O ",
".%-$+. +@%=&@*o$%% # .o Oo@$O  ++X=*=$o-X#@#$=O  O=O.OXo.Oo O o * @+&@o#X= OXX.O  .oo=*..X%Ooo.O#&+ O    %@@OOX.  O* @o-X.%++% o",
" O%#$X.$$*O@@O.o... $oOXX#&+.=*#&oX%*O.;-Xo&@*%......X. -o+ #+#X-O=o@ % O. ==.O..   ..=o$=*=o$@#@++    o..+o... o$ ; + -OO*@+ #o",
" X.$  . $ =.@@ OO.  OO.X.$#+.X%Xo.  %  %-;=##%%=. .XO X=*$+.@#O%X.XXoo. .O.X%##X.   . X$$=*.oo$@+ $#    *#+.... oo%*++%*  -$+$  ",
"oX   ooo  .X @+ X o *.#$ **o .  %%o .+$*-OO.  .XO.X.+@%=X. .OXo ..X.oo$#OO.-.&&@..+o=$.% X% .=X$+## O  .X@@%..O $ % &#*Xo O oX. ",
"$%. O.      OOo#$. .*$+@.*% o$ ..OX=%@+O*X..X.##. o$## =X.=.. o  .X. .$+.*XX@&++ .oX $.%. O ..*X@+@ X.O..++ ..X oX%@&@=O . o    ",
" O oO%   o   XX#$oo.* o$ ==$o $ o =.*#& # ;XX%o&++ .o .%X.XO.  . OX..*@&X;o o@+&o--Oo O.XOO. O-O&+$ $X%X. ++ XO .X@+$# =Oo$ o.. ",
". #@ .o. $o..  ..#@oXo# ...$O @.@$X=*@&$##*X%-X@+*-#+O%X. XX ... .%.O*##O..*- &+o;- $. .X=.#oX;o&+ $@ =%%X+&$  O    %o@@@+@  .O@",
"o+++#++$    .  oOO#$%      . o.O+@.-%+&@o ..X%* .-O@ =X%O  XX . o . X%X oo .*$+@#%.+@# X=%OoO #+@ = # X%%X+& .$# XX..O#@#++$ #+&",
"#@++#@+@  oo..o XX  X.    ..@$%%#$ *X#@$%XXO%%=X   OX.OXX..=X.XX oo..X.o O# ;@&@. &+#+@O*% X=@+$%%%  .OOXX@$-* #OO .  $. +&@@@#+",
"O#+@@$==o$$ Oo@ .   .. .. . $o.OoX. XXO.XX.X%%**++=%...O...XXX%X  ..OOX..%o.X++O* @.-o&#;.@*=&#;    .X. %.@ X*= .X   o#$$@+o%XXO",
".+++$O.   o$. +o $O.OO.O oo  o .OX. OO...OXXXO-*++-X ..X..XXXX%=.   ..O.OXO% +$XO o%-*@#%. ; +.;X. .O.  X.o OO..=XO. #&@X%.X* O-",
" #+#O   .o##oo@ o#oo.XX   o  oo...O.O. .  O  X**@@;O OOO. O=ooXX  o .o O..% + .o.  .XX#oX .% +o*%X..=#+.=XX. ...XX..X$$X%%..XO  ",
"#$$ ...$ ..o$o####$#oo  o O #$o# ==O...  X   .*-o+XXOXO   *X++X%  o  +@.$#.++-.$  ..% @X%. * +$%XXOOX+@%OXX  ....O.. #  .X..OX o",
"o @o=...OO. $o.$+o= @o #$*X@@o$# .O. %$+ Xoo OX-%@$%%.  oX-..# %$oO.X$#=#+@+o-O$o.O..  .X. OX@#%XX%XXooO.Xo$O= @ *.   o OXO... o",
".#+o .O..  . $=.&#=   @+.- #+#    ...$@#. @$.%X%*o@X*..XXO. X..%.  OXo - &&$*;%oo      .O=  .&@*O XX.  .o.@@*=+&=*  .    ..X  . ",
"#&@  ...ooO.o#X*@+  .#&&=* $#      Xoo #O.o ..XOXX  OXXX....  XX=Xo Ooo*=++.**%$#@+ = . .=%.$+$X  OO...$$X@$- &+X*..X$$  .=.$ % ",
"@&+ *..o$o  $# ; $o$  @@O. $.Oo... oO.oO-.o X  %..X..OXOXo$ O.XOXX#o=oo..ooX=*o@ #+$%... X%$++$.%O ...O   o.-%+& Oo%.&$X .X. XO ",
"@+&#% #oO    $$X.o o.* o%XO# X.X..$o*X .X $ % .XXXX=.o%*o+ ==XXXX #.X . o ..o o *%@+..OO .%%@&$*%O   ..   .O**$&++O-o#OOo %X. .$",
"= $#@+@X     oo$+ $+X;. o . XX . O..X   O.o$ =. .  X O;*o..$%XX*X.o X%%.O .$&$-X * +#.O.  X-$+$X*.o ..o# .O.%-O@&&  #  .  ==. . ",
".**@&&#X $  . @&+.$$O...  ..XX .*XXXX  .XO.$+ =XO+$%X*=O=- @X%O%XOX OOX*%O $+ -.#X*@+ #$ O%=o$+ %...XX@+.O..X**$+&+&+...  =O. *.",
"$X%@&&#   $.%$+&& *.o@@ O.o  O  =OO=.o.ooX=.@ -*@&o*.%= .-o@=XOXo.=oX%XXXXOo@ *O  ..++&+$.$ ..#$=X. OXo@X=#@ * @@+@&+*X  ..OOO*O",
"$ . @&#. o *.+++&O #@&@$  ooo  .X  XX. @o%%X$ -O&+.= X= = &+==X%oO.@ *XOXX. $$.%.+o-## ++@#*O.oo..  OXo+*.&+O%#$*.$++=Xoo.X..X%.",
". =*o@$ oo=*@&o#+$+&+@@#  . o  .X ..X%  ..%.oX-#&$-Oo.X  $++$.%%*X+&o*=XOO @$#@ $+.*.-*@&+o*X*X    OO%o& X##X$&$*.$&&#X$+X*..X. ",
"o ...oo o =O@+o $#@&+$$+o;% .*.X*.  .X.  %*. O  # ;X@@  %X+&+.OX*O+&o%*XX%#&%=$$.  OXX-o# oXXX* $   .;.&o-XOX@&+$#+&&@O#@%%  X. ",
"$$o...#$..o @+ X% +&+#$+@O*O.X==.o$ o#O..OO-o&o-*o$.++X-*-.&o* X*X@&@**O%%@@-;.$X=X.oOX o O. O o X o.*=@ X =X+&+#+&&+#X$oX.... @",
"#$$ Xoo#@. .$#ooX%++++$O@@ @@##$$#@o o%%OO%X#@%-;o&#+@ .X-%#.%.%- +&#O%OO%##*%. X.%o$XO o.%.@@oX  . .XOoo.X%#&++@+&&@$.O%$@##o#&",
"#@$ ooo#oXXXo .$oX  #+o o#@#@&&$O ##.O.X=X%o@ -*%%#&&oX..X*O.  *-$+ O =..* $=XXXOO.OX%$@@$%Oo.O=$$X .X   X=+&@$ #+&&$ ..%o@##&&&",
"#$o+@.     . =o@$o=* o   o#o#+&o oo$$ =X...#@X**X%O+&X%o.%=%.@ -XoX%..XO=*X OX  =%..-O&&&#;X..X*#+   X.oo* +@#@.o&+oo#.XOo@&&&++",
"+$@+ X.  o %% #ooo O.  o@#  $+++#  =$+o. o +@O  O-$&+O*o$.X*.+#*X..O....X==.X @ *X.O*%o++.*X..O* #.#@=%$+X= OX #&+%-o+ %$++&&+&&",
"&++O* ..   %.$.O. oOO  #@o@# #@+#$ - &@$oO*o@@&+*%&&& -o# .X*$@*X..X.. .OO=X..Oo OOOX*%#$%OXOO.O.OX++*-@& *X .;.+ -X.#$@+  @@&&&",
"+&+X. .  .oX o...  O .o#* &+o..+&@.*.+@XX.XX#&++O%@++.-.    ;. XO..OX.  . XXXXX  o ....o OOX .. OX* +$o&&#*O$$X #X.OOo++.O.-@@&&",
"@++o o O%#+o..  . $XX. .-O+@  O@&.-%*@.-. % @  +X-%O@$-.  $o*XO.  OOO.O    .%X=*@&#OX    .OO... .O.*o&&++@X.o  +#*. . $ . .%.$&&",
"&+&o $$O$&+$ .# O+@ =O .. $o#@#o@ *.#+ *  - @o+@*-*= .=o  #$.X.oo.OOo@O*O o.X.%%+&@=%  o$=..O.. .. %X#.O@&#**.o&#*  .OO   .X. &&",
"&++$$#X%++#@ %#.#&#@$.%O@+@+&&@ ++$+++.*...* @&+*-XXX... .$$ .  X% Oo& -X . O.Oo@oX%. O##%XO..O . .X..%- +@-%%X++o OXXO  ..OXo&&",
"+++#oo%X@#$.-%@@@. +@$=-$+X +&@.@&&+$   %X *- ++=-==XOXX.= $@ Xo.=O%#&$-.o $  &+ %=X..O+$-X. ......O.o.%.o@X%%*++. .OO*o#X .%@&&",
"+@++ = O@@...*#& - $o$  @oO$#@$X@+@  $@$O% .=Xo# %%XO%**XX.@@*X$o. #+&$-*$$  #+o*o$XX  o$.X. OO....X. . XX& ;*O&o-  .*X+@ $ %+&+",
"+.o&@..*@&X%.*o@=O#  $ O#++# #$- +#X.$o$..    XO## .XXO===.oo*%O $#$$++o.=XOoo -- + = =O@@...X ....O....X%#$=-$&$X o .  o  O.++ ",
"+%o&&o%O##=X..  Oo Ooo *o#$ Xo#O=++ O  oO  O oXX$o  XO..O*=  .O%o++$-o@#X-*X  OX*O$ O .*@+ .OO OO...O.  .OX#$-o&+@@o.o.OoOX  # -",
"+ #++# ##X.   .O  ...## o oo*O@o=@&@  .    %Xo.%OOo@ O#$X**O  . ++#o-%.OXOXXO...XXX.OoX*++. .O O.O.... ..X*+@- +&&#= $ . .%% o.X",
"+@#o  #+ *   o O.. . oo$$#.XX # Oo++ X.o.O$o=..OO*$#o$+ -** o $++@+o-%  X..X. .O.XX.X.=.&+XO  .XO. XO....*O&+  @&&OO##$  .%-  %X",
".X X #@#*XO  #$X.   . o#@#Ooo$ . o&&@o  X= # ..XOO#+@$$O;%%O.  $.OooXXO.%$#OO.Oo.%% oX.@&+=*$@XXO..X    .- &&@+&&@%.$$o$o.**  X.",
".. .$   .= ++#.O .. ##  @$ #  .%=#&+++$%X .X.  %=-$&&$%X=XXX=X%..*O#oX.O.&&$O% oX%*#+#@@+#.-@@*X.X=$@ . %*@&+++&&o o o o#o%-#@ X",
"   o#   .X. #$X.o. #+$X=$ o#.+#X ##@++@.%  % @o**-o&&X-%%%XXXX%.o%*#oOO%o+&+.%X. %.@++*%#$O@& *OO%.+@.OO- &&++@$@ .$  ooo#XO&& o",
". # o     OX..O$#ooooo$# X@+ @#.  *o&#o.-X$$$@#..%#&#-*X%XX%XXXX$.*#oXX*; @#o.* .o+@+.-%XOX @o%XO..$$X  -X+&+#**+.=   $o  O#&+ @",
".$# o     ...X +@   o#++oo@$Oo#O @  @=%o*X&+;X @+@+&.-=O.XXXXOO*  Xoo.O%%XO*.#.%%#&+#*% XO X o.O. .O..o %.+&@**o#..  oo.O###@+#o",
"oo  o  o ... X.#$#@$oo$+++ = $@ $&+#oX $.*@$;OX +&&@**.XX%X.X.OXX.. O=....XOX#oX .#&$-%O.OX .O .O..OO Xo++++=-.o X.  .##@&+.%o# ",
"o    .. o O.@oO $+. $X=#@$%.# $++&&+O%oo.- .X =X+&& ;%O .%=XO.OXXXX.O*XXOXX.OXX@#-O@#%=XOX% O.$ ...X  *#&&&$-%  .O.  .#&&&@*-%o@",
" o  .     O$+$@@ #.o#$XX OX.oXO#&++&.* $ =..  X*@&o* XO@ *=.O..X..X.OXXXO=X .- &.*Xo$==O.XXO*o+OX ..oO-#&&&#-% ..$ O.o#@+& -=; &",
"o# o o#o . #o.@@ #o*#+X  O . .*#&@$@@.%oo  O o%;++=*o.*+o-%X..XX%O.    =%X.OX.@$%..  .XX...OO+@*=....%%@&&&#-= X@+.  X.%$&.-O-.&",
"$$ o  o$     #oO o$$&@Oo .oOO%.&&+o$&@.%.o...X. $#.%  .$ *-O@ X.X% @@$o *X O @$**O  . .XO.X.#+#XOXO oX-$+#$$= .*$#o@=Oo=#&.;=-.&",
"+# #@  o $ . @ .# .+&+# X #o.- +++@$+&@.OX. .. $.% .O .X@ -@+*o@.*@&@&& -%#@ $$**X..O OO .%o.o+....  %*oo**  .XOO=$.%@ X@+O=*;#&",
"&+$$#o$  $o oo  # X++&#=. $@oX*=#&+$@&+# ...O. @.*$o..OX++#+%-@+##+@@@.*- &+%#+.*=.$ o O.O$o-..=o@ O.*o@.%X  .X. ...o+@#&+ =-.++",
"&@O #+@..o .o o$ .$+++O*  X o O= #o.@&+#o.OXO*O+ ;o@ X.O$+&#X=%.#+++$%-*%+&#O+& X..#@+ O. oO%.X-$&$=*%@#%.o   X o.*$++&&&&@ O###",
"&X.@#@o.  .X   #+.X$$o XOO%o$X @$ -*+&+ -%..O%%o.Oo&$%.X-$&@o@ -*@&&#X o$#$*%#+@# %%o+#O  ....X*o+ =O=..X   oXXooX*$@+++++@#++@+",
"+X.o#oX    %O$.o#O  =  .  O$@ $#$$ *#++O%.O. .=*o&+@.= .*%@o%Ooo;=@&$ +o*-%%;%$@$ X*.&+# .$.XX O. O.o XX% $.=X%OoX= . O.oo.$@+&+",
"#Xoo   o . .O.o@$O O..XXooO$@ $  #+.X.o##.-.$ X- &@OO ..%*  O* #.-.+o$@*==O .-X X..;O&++o*o %.O..O..  ..% @X%.%% ..o.o X  O%.o@+",
"+@o .. ..   X*#&@O .OOOO   oo oo= @$oOOo  O  O o#+o-.o..%%. .X.o$*%$.+@X.XXOX% O%O =o&&&$-X   . ..  .   %O@$..%O  +@O@ O#.o.-*.=",
"##  O  ..$oOXo@&&# OX...XOo$o  @ .+@  o.   o.$+@o@+%*o X%%XO.XXo#%**O+$;X..X*o+oX%=.@+$@#=%  . ...O. .  %*@+@#%*.#&@*  .  # X..O",
".   o     .= $@&&+$=.o $%X#o$o#@ $&+.$# o#@&o%@$*$$%.$# %%%X. . oO%*X OX..OX*.+&$%- &@* +@ooXXO  .X.o .o%-+&+@-X+#+@$+# ooooo .X",
"       o =.o Xo+&+&  ++@OX #+&&@  $ X#$$o+&&O-. . $$%O##O%X.. XOo *XOX%O.OOX-X$##.-X&#-.+@+&#o@+. $$+#%+ *@+&#X@&o $@+@.X oo o..",
".  ...o$ % oo.O@+++@#+&&#.$@+++#- $ oo$$@+&&$ o X;o O.%.   ..X=X$ X..XXO.XX.X%O%O.- &o-X .#&@+&+$+&+# O#O-X$@#@&++# $++ %   X@+ ",
"o$.X #$o X o .X.#@++$@&&o%.= o# * o$oo$ $$@&++@oo.XX o# X##==XOX oX  X..OX%X.XXOO=-#&.-XX- @.#@o+@o  o  X%Oo$ @&&&# o++XXo .*$+#",
" .O%o&+$$#  o  X$#+@.@+o-X.X**@$XO$$ $o  .o@@+@&&@.X +@*%@+ *=X.#@ooX%XO.X==XXX..*-$&$%=X%%XX.. #=%o o#oo%Oo%%@&&+&$%+ -. o ;*#+",
"+o*. o#+&&oX  O o#+  & - .X O* +o. $@o $  o$.$@&&@** $O*o##+.$o#+#XXOXO...XXXXO .*- +$X=XX%%%%XXOO*o$  ooX..=*$+@++.-oX%.OooO* +",
"++. .X o$#+oX..Oo++  @..oo ..XO@+  $o.o Oo+$O.$&& -O o=.&o*. +&+ -XXO.OXO..O%%O OX-O+#XXO.O.XX%.#o% # % ..O. ;X@#@ *. ...  o.XX@",
"+++ X.XOoo$## X=@&@o $@$ #o ..=#&@$oo   .@&@ -o&+ ##OO%@&XX%*o&@*=X. . .XXOO=X...*-$& %XOOXO..X$+o*@+oOO.. o *%&+# O    ..   ..$",
"+++.%$#+&#o## % &&#$$ o@.Xoo   o&&$  ooo@&+o $+&# @@.X#&+.=*-.@#..%X. oO.o.%X... .-#+.% OX%O#ooo## ### X . oo*%@+@ .    .O   ..$",
"+&#*.@@o$&+ .. #++o##X$@O=.     +& O  .o+@$%O+&+. #o @+&& ;-* oX. *. %OO.o ...o$@# o$=% X=*=@+ *$#**X   ...o %;o+@.=  .    ..  @",
"#@X o  * @@#.=+&# o# o#o.  XX @@$o  ....o #oX+&@.$@oXo+&&#*- @.;XOO.X*%.XX#+@#@+@$# o.*OX.=-o+O- #*%X-@+ %O  X%@&+X%$o . oO. @++",
" $@@## .o@+@  ++o @$o   oooX*.@&@O o O  .o$$o+&#O$#@%%#+&+O;@+O%%XXXXXX.X* +&$o$.*Xo+o*XXO%%#o%* #%=X-@+X=. . #@&+%X#     .=. @ ",
"o&&&@@@@++o. .#+#$$#@$$@+#. =-%$#O o.Xo$   @++&#= @+o%%#&@*;@+$=*%X...OOX.*$&X% O*;.+$*XXX* #X=X oXXX-o#OoX%% ++&+%%oo   o XO.  ",
"o##@@+@$o+o.oO=@+@o +&+@@  o#oXX%Xo$ $&@..O +&&#.o$##o* +#**o#+o-*%..O.O. = $%. OX=O#$*%O%*#o*XXO .XX%X# OXX;%+&&+ *    .   O. O",
".  $@##o@+$   ;o@o%;@&+ .oo#++$#$.o#@&+XX   ++&@    @+. #o.*-*@#-*X..OOXXXX.o %  O Xo@O*X*X#X*..=O# %% @.X..*%@&@@#% $ o .   ...",
".$$$&+  #@+# .* o.OX@@    $$##$++#++#+#     ++&+o. $##@$ . o%-$#*%XO.OO.XX-.@ -XXXXO#& *%%  %XXO=O#.*  %O ..=*#@*.@=.   ...$oX. ",
"oO ++.X%;.$#+  @  o$o $$  o$$#@+@+&@O++@@  +&++&#.o@  +@ Xo#X%O =%XXOO .%%% #.*X=X=%##. XX O**X..XOX%o.*X O..*$o-@+OOX%.o O  =X ",
".X@&@.$.% o$++&@O.o@  # oo##$#@@@+&#.+&++$@+@$+&+#o o$$@@X.##..$X*XX.  X. .. O=XXXX* # o OXX%*X.O%=%Xo XX. O.%.X && %X.  .  OX.$",
"#+++#o+ %$oO@&&&#* &@o. o $@#o$+++&+o++&@@+@  &&++#o$o.$ X$&&#@$*%XXX ..# %X..XXXXO*.#X%+#*. .%XXXXX%o#%% # OO%*o&+=X X.    O. $",
"&+$#  +##+@o#&&+ ;o++@o.o o@$% ++&&+#@@+&@ @o#&&@$#@@oo# %#&&&+%*OXXOX%.$X=X$o%%XXXXX# %++X$@.%%O XX=.oO==$ . .X*$@ .o . . .. $@",
"+o% X$@+++&$o@+@o$##+&#O. $#oX #@+&&+o#@@ X#+@+&o $@&&&+.; +&+#=%OOX.OX..X*%+@**XXOX%o#o@oXoo%%X  X .XOO=%o#.. X* $o o.=. OO$$@@",
"#.X $ $+o@&+ ; &&+##++@# .$oo..$$#+&& #+$  ++ #&$..$&&&#;O.@+#o%%..OOXXX  -%++ XO OX%=o %*.o.%%X. . $ %OXXooO.=*O o $ O. .X . $$",
"@o o..# .+&+ -.+&@#o.$&&o.  $.=oO @&&##++$ $#o@&$.o#+++OOo.@&+@XX.O .%%% #X @++O.+.*=XXO.X. .XXX.o.X@#.X.o.%. =%   #$....Oo Oo. ",
"X +o%o.Xo@##o. @+$ ** ##@@$ o .Xo$ #&&@#+ .o$@+&#.#+++# ##.$&+@oO=. .XX*.+$X=$& * =O%%XX o $oOX* #X;o@@o$ %OX.%XoOO$     .$ OX o",
"%.# O O.#oO ##@@$O%OO. O#&+. $X*++o@&+..oXo  ##@+@@++&@.++ o@#@ O=X....=*#$--*# =XX.OXXX= #@#$$%Xo.%=.  O%O.XX=.oo.O.. ...O  .  ",
"XO ....   o. o@+oo@oXOo$+&+#o$X%+@o$$.O$oo#$o   #+o$++@o+@.o#+#%X. .OO.%%$.-%%XX  XO. OX*%@&+++=*$ XO*. .OO=O = @$ ..   .O. o# X",
".  .o#.   $.OO$@$#oX$$O@++&@*. #+ O..o+o +@$ ..Xo@$@++@++=-o++ XX oXXX O.oX*=%%X. O% $.X%*#+##&.;oo.=%   .XX  %$@# X .  ...O@@*X",
"X.$X$+o  $@ .X o#oXo+@%o+@++.X$+.-*%X#&oO+@$@@%;$&@+++@++ *#&+ .O  .O... .%=X=%.XX =$#%%%o++@o+ -.o..  XO.OOXO#@o@$Xo   ...  OX.",
"X@#* &@.  .   .o+= +o#oo+#@@#o+ ; $** ++o$$++$;-@+@@#&++@  +&+# .. .%.....  %%%X* # +$-; ++++##.*O  o# %%. X*.#@ ++..o$ .   .X. ",
"@&.*o@+#oX.  o o  +@.o$$$ @@# &X%&&.-$+@##+@o.-.&@@#+&+#$O$&+##o..o %O.=X.$@O*%*-o++@=-.++#@&+@O=.O    =X..%XX +$#+$*  ..  oOX o",
"+& .o$@@o... O.@+&&$*Xo@ -#@##+=O&&.X@$.#&#o.X=$@+@#+&@o X@&@o@@oX. XO.XXO.@#***-.@@X-*$@#@+&&@ o.X$$%X ...O.Oo@$$+@.X O.o  O.o.",
"&&@$o  o   . X%oo#&o-O.#@  #.o&..#.#@O% $o  O.  $+@$+&@$=%+&o.o++.=....X. .o =O***oo.%- oo@++@#$.* &@* . oOX XX$OO@# ...  o  . $",
"+++X%.@@= @ ooO.-#&$*OO#+$o+oo++@=*#&o*. X.o.XO%$+$$@&@*. &+ .o@+o ...=. o X=.OXX @o..*$# +@@#oX-%o#o..*@+=*o. X-%.  %%o$.. O.$@",
"+@...O# %o# o o .++ .  #@o.#+@+&@ .%@& *... o..*$&$oo@o-. &+$  #@# ..X.$o %;.O   @$$$XXo @+#.$oO*oo*.  .++X-..OXXX=. %%% .  %Xo&",
"&@. o. O #o oo  ++ O .o#+#=$+&&+$+@=X@oX.#%.$o.-#+o.o@ O.$&@o  #@@.=*=$@ =*=O.+.= o$o.X.@+# @$o.*o@XX. $+& -O..OXXO$#%%%X  $X.@&",
"&@% o.. @$  o$.$++OX X $+@Xo++o# o@o$$.X$  #o  #+o X $ O @&@oo. ++...$+#==.X +#*Xo. o.* @# X. o =o#*o$$++&@-%..==. ##*%=%O#+.@&&",
"&+.  . + . . @@ $$%  O+++@Oo@ =#X $$@O;   @+  #+$.o.  .. +@$ooOO++#$o+@ O.X.$o%;@+X. .X$#  == $o. =%+++&@&o-O..=Xo ##%%=%%#+@&&&",
"&&$X o+ X.o #&o*o . @&&++#.o *%  ..@o-oo $&+o$#$...o$.o#o+@ $o.o@++% +# *O%O .;*#@.O. .#.=... o$ ..=oo@++@=X ..O.oooo XX%- +&+++",
"++O%$+#. ...+& . . #&&#+@ ;  XXo ..$ .$X.@&# ## .X..  #$ @# ooo##@+-.#$$*XX..$*-o+O%. o.OXo$  . %.#%-X$$#+ %...=X. #$  .%-=#+&+@",
"+#-.#+O $Ooo@& %O.#&&    *.o  = o.. $ ..X#+o #$oX ..$$@o.#o#. $  +@%O.##XO....XX o.%XooXX.$## X=*$#%X $oo+$-XOXX #++##...X;%@&+$",
"#.-#++#$OO   @OOO.@@ *. .O    =.$  $@ .XX$# ##$.%  X.@$X @  . #  +#.O%o+$........#.*O XXX.o##o=-.+o-ooo =@@%XXXX$+&+#  $.XO%o+&O"
};
