/* XPM */
static char *f9cb4fe42b69496d8a68c352b0f002e6[] = {
/* columns rows colors chars-per-pixel */
"64 64 256 2 ",
"   c black",
".  c #0000A8",
"X  c #00A800",
"o  c #00A8A8",
"O  c #A80000",
"+  c #A800A8",
"@  c #A85400",
"#  c gray66",
"$  c gray33",
"%  c #5454FC",
"&  c #54FC54",
"*  c #54FCFC",
"=  c #FC5454",
"-  c #FC54FC",
";  c #FCFC54",
":  c gray99",
">  c #ECECEC",
",  c gainsboro",
"<  c #D0D0D0",
"1  c #C0C0C0",
"2  c #B4B4B4",
"3  c gray66",
"4  c #989898",
"5  c gray55",
"6  c #7C7C7C",
"7  c gray44",
"8  c #646464",
"9  c gray33",
"0  c #484848",
"q  c gray22",
"w  c #2C2C2C",
"e  c #202020",
"r  c #FC0000",
"t  c #EC0000",
"y  c #E00000",
"u  c #D40000",
"i  c #C80000",
"p  c #BC0000",
"a  c #B00000",
"s  c #A40000",
"d  c #980000",
"f  c #880000",
"g  c #7C0000",
"h  c #700000",
"j  c #640000",
"k  c #580000",
"l  c #4C0000",
"z  c #400000",
"x  c #FCD8D8",
"c  c #FCB8B8",
"v  c #FC9C9C",
"b  c #FC7C7C",
"n  c #FC5C5C",
"m  c #FC4040",
"M  c #FC2020",
"N  c #FC0000",
"B  c #FCA85C",
"V  c #FC9840",
"C  c #FC8820",
"Z  c #FC7800",
"A  c #E46C00",
"S  c #CC6000",
"D  c #B45400",
"F  c #9C4C00",
"G  c #FCFCD8",
"H  c #FCFCB8",
"J  c #FCFC9C",
"K  c #FCFC7C",
"L  c #FCF85C",
"P  c #FCF440",
"I  c #FCF420",
"U  c #FCF400",
"Y  c #E4D800",
"T  c #CCC400",
"R  c #B4AC00",
"E  c #9C9C00",
"W  c #848400",
"Q  c #706C00",
"!  c #585400",
"~  c #404000",
"^  c #D0FC5C",
"/  c #C4FC40",
"(  c #B4FC20",
")  c #A0FC00",
"_  c #90E400",
"`  c #80CC00",
"'  c #74B400",
"]  c #609C00",
"[  c #D8FCD8",
"{  c #BCFCB8",
"}  c #9CFC9C",
"|  c #80FC7C",
" . c #60FC5C",
".. c #40FC40",
"X. c #20FC20",
"o. c #00FC00",
"O. c #00FC00",
"+. c #00EC00",
"@. c #00E000",
"#. c #00D400",
"$. c #04C800",
"%. c #04BC00",
"&. c #04B000",
"*. c #04A400",
"=. c #049800",
"-. c #048800",
";. c #047C00",
":. c #047000",
">. c #046400",
",. c #045800",
"<. c #044C00",
"1. c #044000",
"2. c #D8FCFC",
"3. c #B8FCFC",
"4. c #9CFCFC",
"5. c #7CFCF8",
"6. c #5CFCFC",
"7. c #40FCFC",
"8. c #20FCFC",
"9. c #00FCFC",
"0. c #00E4E4",
"q. c #00CCCC",
"w. c #00B4B4",
"e. c #009C9C",
"r. c #008484",
"t. c #007070",
"y. c #005858",
"u. c #004040",
"i. c #5CBCFC",
"p. c #40B0FC",
"a. c #20A8FC",
"s. c #009CFC",
"d. c #008CE4",
"f. c #007CCC",
"g. c #006CB4",
"h. c #005C9C",
"j. c #D8D8FC",
"k. c #B8BCFC",
"l. c #9C9CFC",
"z. c #7C80FC",
"x. c #5C60FC",
"c. c #4040FC",
"v. c #2024FC",
"b. c #0004FC",
"n. c #0000FC",
"m. c #0000EC",
"M. c #0000E0",
"N. c #0000D4",
"B. c #0000C8",
"V. c #0000BC",
"C. c #0000B0",
"Z. c #0000A4",
"A. c #000098",
"S. c #000088",
"D. c #00007C",
"F. c #000070",
"G. c #000064",
"H. c #000058",
"J. c #00004C",
"K. c #000040",
"L. c #282828",
"P. c #FCE034",
"I. c #FCD424",
"U. c #FCCC18",
"Y. c #FCC008",
"T. c #FCB400",
"R. c #B420FC",
"E. c #A800FC",
"W. c #9800E4",
"Q. c #8000CC",
"!. c #7400B4",
"~. c #60009C",
"^. c #500084",
"/. c #440070",
"(. c #340058",
"). c #280040",
"_. c #FCD8FC",
"`. c #FCB8FC",
"'. c #FC9CFC",
"]. c #FC7CFC",
"[. c #FC5CFC",
"{. c #FC40FC",
"}. c #FC20FC",
"|. c #FC00FC",
" X c #E000E4",
".X c #C800CC",
"XX c #B400B4",
"oX c #9C009C",
"OX c #840084",
"+X c #6C0070",
"@X c #580058",
"#X c #400040",
"$X c #FCE8DC",
"%X c #FCE0D0",
"&X c #FCD8C4",
"*X c #FCD4BC",
"=X c #FCCCB0",
"-X c #FCC4A4",
";X c #FCBC9C",
":X c #FCB890",
">X c #FCB080",
",X c #FCA470",
"<X c #FC9C60",
"1X c #F0945C",
"2X c #E88C58",
"3X c #DC8854",
"4X c #D08050",
"5X c #C87C4C",
"6X c #BC7848",
"7X c #B47044",
"8X c #A86840",
"9X c #A0643C",
"0X c #9C6038",
"qX c #905C34",
"wX c #885830",
"eX c #80502C",
"rX c #744C28",
"tX c #6C4824",
"yX c #5C4020",
"uX c #543C1C",
"iX c #483818",
"pX c #403018",
"aX c #382C14",
"sX c #28200C",
"dX c #600064",
"fX c #006464",
"gX c #006060",
"hX c #00001C",
"jX c #00002C",
"kX c #302410",
"lX c #480048",
"zX c #500050",
"xX c #000034",
"cX c gray11",
"vX c #4C4C4C",
"bX c gray36",
"nX c gray25",
"mX c gray19",
"MX c #343434",
"NX c #D8F4F4",
"BX c #B8E8E8",
"VX c #9CDCDC",
"CX c #74C8C8",
"ZX c #48C0C0",
"AX c #20B4B4",
"SX c #20B0B0",
"DX c #00A4A4",
"FX c #009898",
"GX c #008C8C",
"HX c #008484",
"JX c #007C7C",
"KX c #007878",
"LX c #007474",
"PX c #007070",
"IX c #006C6C",
"UX c #980088",
/* pixels */
"$ $ $ $ $ $ $ $ $ $ $ $ $ $ $ $ $ $ $ $ $ $ $ $ $ $ $ $ $ $ $ $ $ $ $ $ $ $ $ $ $ $ $ $ $ $ $ $ $ $ $ $ $ $ $ $ $ $ $ $ $ $ $ $ ",
"5 8 8 8 8 8 8 8 8 8 8 7 7 7 8 7 7 7 8 7 8 7 8 7 8 8 8 8 8 8 8 8 8 8 8 8 8 8 8 8 8 8 8 8 8 8 8 8 8 8 8 8 8 8 8 8 8 8 8 8 8 8 8 q ",
"5 bX8 8 7 7 bX8 8 8 8 8 7 8 7 8 7 8 7 7 7 7 7 8 7 8 7 8 7 8 7 8 8 8 8 8 8 8 8 8 8 8 8 8 8 8 8 8 8 8 8 8 8 8 8 8 8 8 7 7 bX8 8 q ",
"5 $ bX7 # 7 $ vX8 8 8 8 8 8 8 7 8 7 8 7 8 7 7 7 7 7 7 7 8 7 8 7 8 7 8 7 8 7 8 8 8 8 8 8 8 8 8 8 8 8 8 8 8 8 8 8 8 7 < 5 $ vX8 q ",
"5 $ $ 7 5 bX$ vX8 8 8 8 8 8 8 8 8 8 8 8 7 8 7 8 7 7 7 7 7 7 7 7 7 7 7 8 7 8 7 8 7 8 7 8 7 8 8 8 8 8 8 8 8 8 8 8 8 7 5 bX$ vX8 q ",
"5 $ $ $ bX$ vX8 bXbX8 8 8 8 8 8 8 8 8 8 8 8 8 7 8 7 8 7 7 7 7 7 7 7 7 7 7 7 7 7 7 7 8 7 8 7 8 7 8 7 8 7 8 8 8 8 8 8 bX$ vX8 8 q ",
"5 $ $ $ $ $ bXbXbXbXbXbXq 8 8 8 q 8 8 8 q 8 8 8 q 8 7 8 q 8 7 7 q 7 7 7 q 7 7 7 q 7 7 7 q 7 7 8 q 8 7 8 q 8 7 8 7 8 8 8 8 8 8 q ",
"5 $ $ $ $ $ $ bXbXbXbXbXbXbX8 8 8 8 8 8 8 8 8 8 8 8 8 8 8 7 8 7 8 7 7 7 7 7 7 7 7 7 7 7 7 7 7 7 7 7 7 7 7 7 8 7 8 7 8 7 8 7 8 q ",
"5 $ $ $ $ $ $ $ bX$ bXnXnXnXnXnXnXnXnXnXnXnXnXnXnXnXnXnX0 0 0 0 0 0 0 0 0 vXvXvXvXvXvXvXvXvXvXvXvXvXvXvXvX# 7 7 7 7 7 8 7 8 7 q ",
"5 $ $ $ $ $ $ $ $ $ $ nXq q q q q q q q nXnXnXnXnXnXnXnXnXnXnXnXnX0 0 0 0 0 0 0 0 0 0 0 vXvXvXvXvXvXvXvX5 # 7 7 7 7 7 7 7 7 7 q ",
"5 $ $ $ 8 8 bX$ $ $ $ nXq $ bXbX8 bX8 bX8 8 8 8 8 8 8 8 8 8 8 8 8 8 8 8 8 8 7 8 7 8 7 8 7 7 7 7 7 7 7 7 5 # 7 7 7 7 5 7 bX8 7 q ",
"5 vX$ 8 5 7 $ vX$ $ $ nXq $ $ bXbX8 bX8 bX8 8 8 8 8 8 8 8 8 8 8 8 8 8 8 8 8 8 8 8 7 8 7 8 7 8 7 7 7 7 7 5 # 7 7 7 5 < 5 $ vX7 q ",
"5 vXvX$ 7 bX$ 0 vX$ $ nXq $ $ $ bXbXbXbX8 bX8 bX8 8 8 8 8 8 8 8 8 8 8 8 8 8 8 8 8 8 8 8 8 8 7 8 7 8 7 7 5 # 7 7 7 5 5 bX$ vX7 q ",
"5 vXvXvX$ $ 0 0 vX$ $ q q $ $ $ $ bX$ bXbX8 bX8 bX8 8 8 8 8 8 8 8 8 8 8 8 8 8 8 8 8 8 8 8 8 8 8 8 7 8 7 5 # 7 7 7 8 bX$ vX8 7 q ",
"5 vXvXvX0 0 0 vX$ $ $ q q $ $ $ $ $ $ $ $ $ $ $ $ $ $ $ $ $ $ $ $ $ $ $ $ $ $ $ $ $ $ $ $ $ $ $ $ 8 8 8 5 # 7 8 7 7 7 7 7 7 7 q ",
"5 vXvXvXvXvXvX$ vX$ $ q q $ $ $ z z z z z z z z z z z z z z z z z z z z z z z z z z z z z z z z 8 8 8 8 5 # 8 7 8 7 8 7 7 7 7 q ",
"5 vXvXvXvXvXvX$ $ $ $ q q $ $ z ! W W W W W W W W W W W W W W W W W W W W W W W W W W W W W W ! z 8 8 8 5 # 8 8 8 8 7 8 7 8 7 q ",
"5 vXvXvXvXvXvXvX$ $ $ q w $ $ z W ! z z z z z z z z z z z z z z z z z z z z z z z z z z z z ! W z 8 8 8 5 # 8 8 8 8 8 8 8 7 8 q ",
"7 vXvX$ $ $ $ vXvX$ $ q w $ $ z W z z 6 z z z 6 z 6 z 6 z 6 6 6 z 6 z 6 z 6 z 6 z z 6 6 z 6 z W z 8 8 8 5 # 8 8 8 8 7 7 bX8 8 q ",
"7 vXvX$ 8 bX$ 0 vXvX$ q w $ $ z W z 6 z 6 z 6 z z 6 z 6 z z 6 z z 6 z 6 z 6 6 6 z 6 z z z 6 z W z 8 8 8 5 # 8 8 8 7 < 7 $ vX8 q ",
"7 vXvX$ bXbXvXq 0 vXvXq w $ $ z W z 6 z 6 z 6 z z 6 z 6 z z 6 z z 6 z 6 z 6 6 6 z 6 z z z 6 z W z 8 8 8 5 # 8 8 8 7 7 bX$ vX8 q ",
"7 vXvX0 vXvX0 q 0 vXvXq w $ vXz W z 6 6 6 z 6 z z 6 6 6 z z 6 z z 6 z 6 z 6 z 6 z 6 z 6 z z z W z 8 8 8 5 # 8 8 8 8 bX$ vX8 8 q ",
"7 0 vXq q q q 0 0 vXvXq w vX$ z W z 6 z 6 z z 6 z 6 z 6 z z 6 z z z 6 6 z 6 z 6 z z 6 6 z 6 z W z 8 8 8 5 # 8 8 8 8 8 8 8 8 8 q ",
"7 nX0 vX0 0 0 0 vXvXvXw w vXvXz W z z z z z z z z z z z z z z z z z z z z z z z z z z z z z z W z 8 8 8 5 # 8 8 8 8 8 8 8 8 8 q ",
"7 nXnX0 vXvXvXvXvXvXvXw w vXvXz W z z z z z z z z z z z z z z z z z z z z z z z z z z z z z z W z 8 8 8 5 # 8 8 8 8 8 8 8 8 8 q ",
"7 q nX0 0 vXvXvXvXvXvXw w vXvXz W z z z z z z z z z z z z z z z z z z z z z z z z z z z z z z W z 8 8 8 5 # 8 8 8 8 8 8 8 8 8 q ",
"7 q nXvXvX$ $ vXvXvXvXw w vXvXz W z z z $ $ $ $ $ $ $ $ z $ $ $ z $ $ z $ $ $ $ $ z $ $ $ z z W z bX8 bX5 # 8 8 8 8 7 8 bX8 8 q ",
"7 q q vXbX$ vXvXvXvXvXw w vXvXz W z z z z z z z z z z z z z z z z z z z z z z z z z z z z z z W z 8 bX8 5 # 8 8 8 7 < 7 $ vX8 q ",
"7 nXq 0 $ $ vXq vXvXvXw w vXvXz W z z $ $ $ z $ $ $ z $ $ $ $ $ z $ z $ $ $ $ $ $ $ $ $ $ z z W z bX8 bX5 4 8 bX8 7 5 bX$ vX8 q ",
"7 nXnX0 nXnXq q 0 vXvXw w vXvXz W z z z z z z z z z z z z z z z z z z z z z z z z z z z z z z W z bXbXbX5 4 bX8 bX8 bX$ vX8 8 q ",
"7 0 nXq q q q q vX0 vXw w vXvXz W z z $ $ $ $ $ z $ $ $ $ $ z $ z $ $ $ z $ $ $ $ z $ $ $ z z W z bXbXbX5 4 8 bX8 bX8 bX8 8 8 q ",
"7 vXnXnXq q q nX0 vXvXw w vXvXz W z z z z z z z z z z z z z z z z z z z z z z z z z z z z z z W z bX$ bX5 4 bXbXbX8 bX8 bX8 8 q ",
"8 0 nXnXq q nXq nXvXvXw w vXvXz W z z $ $ z $ $ $ $ $ $ z z $ $ $ $ $ z $ $ $ $ z $ $ $ $ z z W z $ bX$ 5 4 bXbXbXbX8 bX8 bX8 q ",
"8 vX0 nXnXq q nXnX0 vXw w vXvXz W z z z z z z z z z z z z z z z z z z z z z z z z z z z z z z W z $ $ bX5 4 $ bXbXbXbXbXbX8 bXq ",
"8 vXvXnXnXnXq q nXnX0 w w 0 vXz W z z $ $ $ $ z $ $ $ $ z $ $ z $ z $ $ $ $ $ $ $ $ z $ $ z z W z $ $ $ 5 4 bX$ bX8 8 8 bX8 8 q ",
"8 vX0 nX$ vX0 q q nXnXw w vXvXz W z z z z z z z z z z z z z z z z z z z z z z z z z z z z z z W z $ $ $ 7 5 $ bX$ 8 # 7 $ vXbXq ",
"8 vXvXvXvXvXnXq q q nXw w 0 vXz W z z $ $ z $ $ $ $ z $ $ $ $ $ $ $ z $ $ $ $ $ z $ $ $ $ z z W z $ $ $ 7 5 $ $ bX8 7 bX$ vXbXq ",
"8 vXvX0 nX0 q q q q q w w vX0 z W z z z z z z z z z z z z z z z z z z z z z z z z z z z z z z W z $ $ $ 7 5 $ $ $ bX$ $ vX8 bXq ",
"8 vXvXq q q q q q q nXw w 0 0 z W z z z z z z z z z z z z z z z z z z z z z z z z z z z z z z W z $ $ $ 7 5 $ $ $ $ bX$ bX$ $ q ",
"8 vXvXvX0 0 nXnXq q q w w nX0 z W z z z z z z q 8 8 8 q z z z z z z z z z z z z z z z z z z z W z $ $ $ 7 5 $ $ $ $ $ $ $ bX$ q ",
"8 vXvXvXvX0 nXnXnXq q w w nXnXz W z z z z z q 8 8     8 q z z z z $ $ $ $ $ $ $ $ $ $ $ $ z z W z $ $ $ 7 5 $ $ $ $ $ $ $ $ bXq ",
"8 vXvXvXvXvX0 nXq nXq w w nXnXz W z z z z z 8   8   8 8 8 z z z z z z z z z z z z z z z z z z W z $ $ $ 7 5 $ $ $ $ $ $ $ $ $ q ",
"8 vXvX$ $ $ nXnXnXq q w w q nXz W z z z z z 8           8 z z z z $ $ $ $ $ $ $ $ $ $ $ $ z z W z $ $ $ 7 5 $ $ $ 8 7 7 bX$ $ q ",
"8 $ vX$ bX$ vXnXnXnXq w w q q z W z z z z z 8 8 8   8   8 z z z z z z z z z z z z z z z z z z W z $ $ $ 7 5 $ $ $ 7 5 7 $ vX$ q ",
"8 $ vX$ $ $ vXq 0 nXnXw w q nXz W z z z z z q 8     8 8 q z z z z z 0 q z z z z q 0 z z z z z W z $ $ $ 8 5 $ $ $ 8 7 bX$ vX$ q ",
"8 $ $ vXvXvXq q 0 nXnXw w q q z W z z z z z z q 8 8 8 q z z z z z z 0 $ $ $ 0 q 0 $ 0 0 $ $ z W z $ $ $ 8 5 $ $ $ $ bX$ vX$ $ q ",
"8 $ $ 0 0 q q nX0 0 nXw w q q z W z z z z z z z z z z z z z z z z z z z z z z z z z z z z z z W z $ $ $ 8 5 $ $ $ $ $ $ $ $ $ q ",
"8 $ $ vXvXvXvXvX0 0 nXw w q q z W z z z z z z z z z z z z z z z z z z z z z z z z z z z z z z W z $ $ $ 8 7 $ $ $ $ $ $ $ $ $ q ",
"8 $ $ $ vXvXvX0 vX0 0 w w q q z W ! z z z z z z z z z z z z z z z z z z z z z z z z z z z z ! W z $ $ $ 8 7 $ $ $ $ $ $ $ $ $ q ",
"8 $ $ $ vXvXvXvX0 vX0 w w nXq z ! W W W W W W W W W W W W W W W W W W W W W W W W W W W W W W ! z $ $ $ 8 7 $ $ $ $ $ $ $ $ $ q ",
"8 $ $ $ $ $ $ vXvX0 0 w w nXnXnXz z z z z z z z z z z z z z z z z z z z z z z z z z z z z z z z $ $ $ $ 8 7 $ $ $ $ 8 8 bX$ $ q ",
"8 $ $ $ 8 $ $ vXvXvX0 w w nXq nXq q q nXq nXnX0 0 vX0 vXvXvXvXvXvXvXvXvXvXvXvXvXvXvXvX$ vX$ vX$ vX$ $ $ bX7 $ $ $ 8 5 7 $ vX$ q ",
"8 $ $ $ $ $ vXnXvXvXvXw w nXnXq q q q q nXq nXnX0 0 vX0 vXvXvXvXvXvXvXvXvXvXvXvXvXvXvXvXvXvX$ vX$ $ $ $ bX8 $ $ $ 8 7 bX$ vX$ q ",
"8 $ $ vXvXvXq q vXvX0 w q 0 nXnXq q q q nXq q nX0 0 0 vX0 vXvXvXvXvXvXvXvXvXvXvXvXvXvXvXvX$ vX$ vX$ vX$ bX8 $ $ $ $ bX$ vXvX$ q ",
"8 $ $ 0 nXq q nXvXvXvXw q $ $ $ vXvX0 0 0 0 0 vXvXvXvX$ $ $ $ $ $ $ $ $ $ $ $ $ $ $ $ $ $ $ $ $ $ $ bXbXbX8 $ $ $ $ $ vXvX$ $ q ",
"8 $ $ $ $ $ vXvXvXvXvXw $ $ vXvXvX0 0 0 0 0 0 0 vXvXvXvXvXvX$ $ $ $ $ bXbXbXbXbXbXbXbXbXbXbXbXbXbX8 8 8 8 8 $ $ $ $ $ $ $ $ $ q ",
"8 $ $ $ $ $ vXvXvX0 vX0 vX0 0 0 nXq q q q q nXq nXnXnX0 0 0 vXvXvXvXvXvXvXvXvXvXvXvXvXvXvXvXvXvXvXvX$ vX$ $ $ $ $ $ $ $ $ $ $ q ",
"8 $ $ $ $ $ vXvXvXvXvXvXw 0 0 0 w nXq q w q q nXw nXnX0 w 0 0 vXw vXvXvXw vXvXvXw vXvXvXw vXvXvXw $ vX$ w $ vX$ $ $ $ $ $ $ $ q ",
"8 $ $ vX$ $ vXvXvXvXvX0 vXvX0 0 0 nXnXq q q q q nXnXnXnX0 0 0 0 vX0 vXvXvXvXvXvXvXvXvXvXvXvXvXvXvXvXvXvX$ vX$ $ $ $ bXbX$ $ $ q ",
"8 $ $ $ 7 8 vXnXvXvXvXvXvXvX0 0 0 nXq nXq q q q nXq nXnXnX0 0 0 0 vXvXvXvXvXvXvXvXvXvXvXvXvXvXvXvXvXvX$ vX$ vX$ vXbX5 8 $ vX$ q ",
"8 $ $ $ 8 $ q nXvXvXvXvXvX0 vX0 0 0 nXq nXq q q q q nXq nXnX0 0 vX0 vX0 vXvXvXvXvXvXvXvXvXvXvXvXvXvXvXvXvXvX$ vX$ bX8 bX$ vX$ q ",
"8 $ $ vXq q q nXvXvXvXvXvXvX0 0 0 0 nXnXq q q q q q q nXq nX0 0 0 vX0 vXvXvXvXvXvXvXvXvXvXvXvXvXvXvXvXvXvX$ vX$ vX$ $ $ vXvX$ q ",
"8 $ $ nXnXnXnXvXvXvXvXvXvXvXvX0 0 0 0 nXnXq q q q q nXq nXq nX0 0 0 vX0 vX0 vXvXvXvXvXvXvXvXvXvXvXvXvXvXvXvXvXvX$ vXvXvXvX$ $ q ",
"8 8 8 8 8 8 8 8 8 8 8 8 8 8 8 8 8 8 8 8 8 8 8 8 8 8 8 8 8 8 8 8 8 8 8 8 8 8 8 8 8 8 8 8 8 8 8 8 8 8 8 8 8 8 8 8 8 8 8 8 8 8 8 8 "
};
