/* XPM */
static char *_2cc9b5a9f00411ed26119dad4fe1596[] = {
/* columns rows colors chars-per-pixel */
"64 64 256 2 ",
"   c black",
".  c #0000A8",
"X  c #00A800",
"o  c #00A8A8",
"O  c #A80000",
"+  c #A800A8",
"@  c #A85400",
"#  c gray66",
"$  c gray33",
"%  c #5454FC",
"&  c #54FC54",
"*  c #54FCFC",
"=  c #FC5454",
"-  c #FC54FC",
";  c #FCFC54",
":  c gray99",
">  c #ECECEC",
",  c gainsboro",
"<  c #D0D0D0",
"1  c #C0C0C0",
"2  c #B4B4B4",
"3  c gray66",
"4  c #989898",
"5  c gray55",
"6  c #7C7C7C",
"7  c gray44",
"8  c #646464",
"9  c gray33",
"0  c #484848",
"q  c gray22",
"w  c #2C2C2C",
"e  c #202020",
"r  c #FC0000",
"t  c #EC0000",
"y  c #E00000",
"u  c #D40000",
"i  c #C80000",
"p  c #BC0000",
"a  c #B00000",
"s  c #A40000",
"d  c #980000",
"f  c #880000",
"g  c #7C0000",
"h  c #700000",
"j  c #640000",
"k  c #580000",
"l  c #4C0000",
"z  c #400000",
"x  c #FCD8D8",
"c  c #FCB8B8",
"v  c #FC9C9C",
"b  c #FC7C7C",
"n  c #FC5C5C",
"m  c #FC4040",
"M  c #FC2020",
"N  c #FC0000",
"B  c #FCA85C",
"V  c #FC9840",
"C  c #FC8820",
"Z  c #FC7800",
"A  c #E46C00",
"S  c #CC6000",
"D  c #B45400",
"F  c #9C4C00",
"G  c #FCFCD8",
"H  c #FCFCB8",
"J  c #FCFC9C",
"K  c #FCFC7C",
"L  c #FCF85C",
"P  c #FCF440",
"I  c #FCF420",
"U  c #FCF400",
"Y  c #E4D800",
"T  c #CCC400",
"R  c #B4AC00",
"E  c #9C9C00",
"W  c #848400",
"Q  c #706C00",
"!  c #585400",
"~  c #404000",
"^  c #D0FC5C",
"/  c #C4FC40",
"(  c #B4FC20",
")  c #A0FC00",
"_  c #90E400",
"`  c #80CC00",
"'  c #74B400",
"]  c #609C00",
"[  c #D8FCD8",
"{  c #BCFCB8",
"}  c #9CFC9C",
"|  c #80FC7C",
" . c #60FC5C",
".. c #40FC40",
"X. c #20FC20",
"o. c #00FC00",
"O. c #00FC00",
"+. c #00EC00",
"@. c #00E000",
"#. c #00D400",
"$. c #04C800",
"%. c #04BC00",
"&. c #04B000",
"*. c #04A400",
"=. c #049800",
"-. c #048800",
";. c #047C00",
":. c #047000",
">. c #046400",
",. c #045800",
"<. c #044C00",
"1. c #044000",
"2. c #D8FCFC",
"3. c #B8FCFC",
"4. c #9CFCFC",
"5. c #7CFCF8",
"6. c #5CFCFC",
"7. c #40FCFC",
"8. c #20FCFC",
"9. c #00FCFC",
"0. c #00E4E4",
"q. c #00CCCC",
"w. c #00B4B4",
"e. c #009C9C",
"r. c #008484",
"t. c #007070",
"y. c #005858",
"u. c #004040",
"i. c #5CBCFC",
"p. c #40B0FC",
"a. c #20A8FC",
"s. c #009CFC",
"d. c #008CE4",
"f. c #007CCC",
"g. c #006CB4",
"h. c #005C9C",
"j. c #D8D8FC",
"k. c #B8BCFC",
"l. c #9C9CFC",
"z. c #7C80FC",
"x. c #5C60FC",
"c. c #4040FC",
"v. c #2024FC",
"b. c #0004FC",
"n. c #0000FC",
"m. c #0000EC",
"M. c #0000E0",
"N. c #0000D4",
"B. c #0000C8",
"V. c #0000BC",
"C. c #0000B0",
"Z. c #0000A4",
"A. c #000098",
"S. c #000088",
"D. c #00007C",
"F. c #000070",
"G. c #000064",
"H. c #000058",
"J. c #00004C",
"K. c #000040",
"L. c #282828",
"P. c #FCE034",
"I. c #FCD424",
"U. c #FCCC18",
"Y. c #FCC008",
"T. c #FCB400",
"R. c #B420FC",
"E. c #A800FC",
"W. c #9800E4",
"Q. c #8000CC",
"!. c #7400B4",
"~. c #60009C",
"^. c #500084",
"/. c #440070",
"(. c #340058",
"). c #280040",
"_. c #FCD8FC",
"`. c #FCB8FC",
"'. c #FC9CFC",
"]. c #FC7CFC",
"[. c #FC5CFC",
"{. c #FC40FC",
"}. c #FC20FC",
"|. c #FC00FC",
" X c #E000E4",
".X c #C800CC",
"XX c #B400B4",
"oX c #9C009C",
"OX c #840084",
"+X c #6C0070",
"@X c #580058",
"#X c #400040",
"$X c #FCE8DC",
"%X c #FCE0D0",
"&X c #FCD8C4",
"*X c #FCD4BC",
"=X c #FCCCB0",
"-X c #FCC4A4",
";X c #FCBC9C",
":X c #FCB890",
">X c #FCB080",
",X c #FCA470",
"<X c #FC9C60",
"1X c #F0945C",
"2X c #E88C58",
"3X c #DC8854",
"4X c #D08050",
"5X c #C87C4C",
"6X c #BC7848",
"7X c #B47044",
"8X c #A86840",
"9X c #A0643C",
"0X c #9C6038",
"qX c #905C34",
"wX c #885830",
"eX c #80502C",
"rX c #744C28",
"tX c #6C4824",
"yX c #5C4020",
"uX c #543C1C",
"iX c #483818",
"pX c #403018",
"aX c #382C14",
"sX c #28200C",
"dX c #600064",
"fX c #006464",
"gX c #006060",
"hX c #00001C",
"jX c #00002C",
"kX c #302410",
"lX c #480048",
"zX c #500050",
"xX c #000034",
"cX c gray11",
"vX c #4C4C4C",
"bX c gray36",
"nX c gray25",
"mX c gray19",
"MX c #343434",
"NX c #D8F4F4",
"BX c #B8E8E8",
"VX c #9CDCDC",
"CX c #74C8C8",
"ZX c #48C0C0",
"AX c #20B4B4",
"SX c #20B0B0",
"DX c #00A4A4",
"FX c #009898",
"GX c #008C8C",
"HX c #008484",
"JX c #007C7C",
"KX c #007878",
"LX c #007474",
"PX c #007070",
"IX c #006C6C",
"UX c #980088",
/* pixels */
"D.D.D.S.D.D.D.S.D.D.D.D.D.A.A.A.S.S.S.S.D.S.A.D.G.D.D.D.D.G.D.D.D.S.D.A.D.D.D.S.A.A.D.S.A.A.D.S.D.S.D.S.S.A.D.D.D.D.D.D.S.D.D.D.",
"S.G.D.D.G.D.G.D.D.D.G.D.S.A.S.S.D.S.S.D.D.A.S.G.D.S.D.D.G.D.S.D.D.S.S.A.S.D.S.G.A.A.A.A.A.S.S.S.S.D.D.S.A.A.D.D.D.S.S.S.S.D.D.D.",
"A.G.G.D.G.D.D.S.S.D.G.D.D.S.D.D.D.A.A.D.S.D.G.G.S.S.D.D.G.D.S.S.A.S.A.A.D.D.S.D.A.A.A.A.A.D.S.D.S.D.A.S.S.S.D.D.S.S.S.D.D.D.D.D.",
"S.D.G.D.G.G.G.D.G.G.G.D.S.S.S.A.D.S.A.S.D.S.D.D.S.S.S.D.J.D.D.S.A.S.A.A.S.S.G.D.D.S.A.D.S.D.S.D.A.S.S.S.S.S.D.G.D.A.A.S.D.D.D.G.",
"G.G.G.G.G.S.D.D.G.G.G.D.S.S.A.S.D.A.A.A.D.D.S.D.G.D.S.D.G.D.D.A.A.S.A.A.S.S.G.S.G.D.S.D.D.D.A.S.S.S.S.A.S.S.S.D.D.A.A.D.D.D.D.G.",
"D.A.D.D.D.S.D.S.D.S.D.G.A.S.D.D.S.A.A.A.S.S.S.S.S.G.D.S.D.S.S.A.S.A.A.S.S.D.G.D.S.S.S.S.S.S.S.S.S.S.S.A.S.D.D.D.S.S.S.D.D.D.G.G.",
"S.D.D.D.D.D.S.S.D.D.D.D.A.S.D.D.D.D.D.A.S.A.S.S.D.S.S.D.A.S.S.S.A.A.A.D.D.D.D.D.S.D.S.S.S.S.D.D.G.D.A.S.S.D.D.D.D.S.S.D.D.D.G.G.",
"A.G.D.S.S.D.D.D.S.S.D.D.G.D.D.D.S.D.D.S.D.D.D.D.D.D.D.D.D.D.G.S.S.D.H.G.D.D.G.D.G.S.S.A.S.S.D.D.S.D.S.A.S.S.D.D.D.D.G.G.D.D.D.S.",
"0 0 0 0 0 0 0 0 0 0 $ nXnX0 0 0 0 0 0 0 0 0 0 0 0 0 0 0 0 0 0 $ 0 0 0 0 $ $ 0 $ $ $ $ $ 0 0 0 0 $ 0 $ 0 0 0 0 0 0 0 0 0 0 0 0 0 ",
"mXmXmXmXmXmXmXmXmXmXmXmXmXmXmXmXmXq mXmXmXmXmXmXmXmXmXmXmXmXmXmXmXmXmXq q q q q mXmXmXmXmXmXmXmXmXmXmXmXmXmXmXmXmXmXmXmXmXmXmXmX",
"D.D.D.D.S.D.S.S.D.G.D.D.D.D.D.D.S.A.S.D.S.D.S.S.S.A.S.A.S.D.A.S.S.A.S.S.A.A.A.A.S.A.S.S.D.D.S.D.S.S.S.D.S.D.D.G.D.D.D.G.D.D.G.G.",
"D.D.D.D.D.G.G.D.G.G.D.G.D.D.D.D.S.A.A.D.S.D.A.D.D.S.A.A.S.S.S.S.D.S.S.A.A.A.A.S.S.S.S.D.D.D.S.D.D.S.D.D.S.S.S.S.D.D.D.D.G.D.D.G.",
"D.G.S.D.D.D.G.D.S.S.D.D.D.D.D.D.D.S.D.D.D.D.A.D.D.D.A.A.S.D.S.S.D.S.S.A.D.S.A.D.D.S.S.G.G.D.S.S.D.D.G.G.D.A.S.S.S.S.D.G.D.G.G.D.",
"S.G.D.D.D.D.D.D.D.S.D.D.D.D.D.G.D.D.G.D.D.D.S.D.S.G.D.D.D.S.S.S.D.S.S.D.D.S.S.S.S.S.D.G.S.S.A.S.S.D.D.D.D.A.S.A.S.D.D.G.D.G.D.D.",
"D.S.D.D.D.D.D.S.S.S.D.D.S.D.S.D.D.D.D.D.D.D.D.D.S.G.D.D.G.D.S.D.S.S.S.D.S.S.S.S.D.D.S.D.D.S.S.S.D.D.D.D.D.D.D.S.S.D.G.D.D.D.S.D.",
"D.S.G.D.D.D.D.D.D.S.D.G.S.A.S.D.D.D.D.D.D.D.D.D.D.D.D.S.S.A.D.S.A.S.D.S.D.D.S.S.S.G.G.D.D.D.G.D.D.D.D.G.D.D.D.S.D.G.G.G.G.D.D.S.",
"D.S.D.D.S.D.G.D.G.D.D.D.D.S.S.G.D.D.S.S.D.D.S.S.S.D.S.S.S.A.A.S.A.S.D.S.S.D.G.D.D.D.D.D.G.D.S.D.D.H.D.G.D.D.A.S.G.G.G.G.G.D.D.D.",
"G.S.D.S.S.D.D.D.G.D.S.D.S.D.D.G.D.D.D.D.G.G.D.S.S.D.D.D.D.S.S.D.D.G.S.D.D.J.H.D.D.G.D.S.D.G.G.D.J.G.D.G.D.S.D.D.D.D.G.xXG.G.D.G.",
"G.D.D.G.D.G.D.D.D.S.S.D.S.D.D.G.D.D.D.D.D.S.S.D.D.D.D.D.D.S.D.D.S.D.D.S.S.S.G.D.G.G.D.S.D.G.G.G.G.D.D.S.D.D.D.G.D.J.G.G.H.D.D.G.",
"D.G.D.D.D.G.D.D.D.G.G.D.S.G.G.D.G.D.D.S.S.D.D.D.D.D.D.D.G.D.D.D.D.A.A.D.D.G.S.G.G.G.D.D.S.D.G.G.D.D.D.D.D.G.G.G.G.G.G.D.G.G.J.D.",
"G.H.D.D.D.G.G.G.G.S.D.G.S.D.D.D.G.G.S.S.A.S.D.D.S.D.D.D.D.D.G.D.A.A.S.D.D.D.S.D.D.S.D.D.S.G.G.G.G.D.G.G.G.G.G.G.J.J.G.G.G.H.D.G.",
"G.G.G.D.G.D.S.H.G.G.G.S.S.D.D.D.S.D.G.G.D.D.S.D.D.D.G.G.G.G.G.G.D.D.D.D.D.G.D.D.S.H.G.D.D.D.G.G.D.G.S.D.G.D.S.G.H.H.G.G.xXD.G.H.",
"G.G.G.G.G.G.D.G.G.D.D.D.S.S.G.D.D.D.G.D.D.D.D.G.D.G.D.S.D.D.G.G.G.G.G.G.D.G.G.D.G.D.G.G.D.G.D.G.G.D.G.D.G.G.G.G.G.G.G.G.G.G.G.G.",
"G.G.G.J.G.D.G.G.D.D.D.D.D.D.G.D.D.D.G.D.S.D.D.G.D.D.S.D.D.D.G.D.G.D.G.G.G.G.S.D.S.G.G.G.G.G.G.G.G.D.D.H.G.G.G.H.J.D.G.D.G.G.G.G.",
"G.G.D.D.G.G.G.G.G.D.D.G.D.G.D.G.G.D.G.G.D.D.D.D.D.G.D.D.G.G.G.D.G.J.G.D.J.G.S.A.D.H.xXG.D.G.D.D.D.G.xXxXD.G.G.D.D.G.G.H.G.G.G.G.",
"G.G.D.G.G.D.G.G.G.G.G.G.G.G.D.D.G.G.D.D.D.G.G.G.G.H.G.G.D.D.D.G.G.J.G.G.G.G.D.G.J.G.D.G.G.G.G.G.J.G.H.D.G.H.G.G.G.G.G.D.G.G.G.G.",
"G.G.D.G.G.G.G.G.G.G.D.D.G.D.G.D.G.G.G.G.G.G.G.J.G.H.G.xXH.G.G.G.D.D.G.G.G.G.D.D.D.G.D.D.S.D.G.D.D.G.G.G.H.D.D.J.G.G.G.G.G.G.G.J.",
"G.G.G.J.H.G.J.G.G.D.G.G.D.D.G.G.H.G.G.G.G.G.J.G.D.J.J.xXD.J.J.G.G.G.G.G.H.G.H.G.G.G.G.G.A.G.G.G.G.G.G.D.G.D.S.G.S.G.G.G.G.G.G.D.",
"G.D.G.jXxXJ.G.G.xXxXxXG.D.G.G.G.G.J.G.D.D.D.G.G.G.H.J.G.G.G.xXJ.G.J.G.G.G.H.G.D.G.G.G.D.D.G.G.G.J.H.G.J.G.D.G.G.G.G.G.G.G.G.G.G.",
"G.G.D.G.H.S.G.G.G.G.G.G.G.G.G.G.G.G.J.H.G.G.G.J.xXG.H.G.J.xXJ.J.J.J.H.G.H.H.G.G.G.G.xXG.G.J.xXG.D.G.G.G.G.G.G.H.J.H.G.J.G.D.H.G.",
"G.D.A.D.G.D.H.D.G.G.G.J.G.D.G.J.xXxXG.xXxXG.G.G.J.G.xXG.xXxXH.H.G.J.J.J.J.G.G.H.H.G.G.D.G.D.J.G.G.G.G.G.J.G.G.H.G.D.H.G.G.G.J.G.",
"G.S.G.G.G.J.G.D.G.G.xXJ.xXxXxXJ.J.xXG.xXG.J.G.G.J.J.J.J.xXG.D.D.xXxXJ.J.J.G.G.G.D.G.G.G.G.G.G.G.J.G.D.G.G.G.G.G.G.G.H.G.H.J.J.G.",
"G.G.G.G.G.D.G.H.G.G.J.G.G.D.G.G.H.G.G.D.H.H.G.D.D.H.H.G.G.D.G.J.xXH.J.G.G.H.xXJ.J.D.D.G.J.G.G.H.G.D.xXJ.J.G.xXG.G.G.G.G.D.G.G.G.",
"G.J.J.J.G.G.H.G.G.G.G.G.J.J.xXxXJ.xXG.H.G.H.G.G.G.D.J.J.G.G.J.J.H.H.G.G.G.J.G.D.D.D.G.G.D.H.J.J.G.xXG.G.G.G.J.G.J.G.J.G.J.G.G.G.",
"J.xXD.G.J.J.xXxXH.xXG.G.H.G.xXJ.J.G.J.G.H.J.D.G.G.H.J.G.jXxXH.G.J.xXH.J.G.J.J.G.G.G.J.H.J.xXH.H.xXH.J.xXG.H.G.G.J.J.G.xXG.G.G.J.",
"J.G.G.G.D.G.S.J.G.G.G.G.xXxXG.G.J.J.J.J.G.J.G.G.G.xXJ.J.G.D.J.jXxXG.H.G.J.H.xXG.G.H.G.G.G.D.G.xXG.D.G.G.G.G.D.J.xXG.J.D.G.J.J.G.",
"xXxXJ.G.G.G.G.xXJ.J.G.G.G.G.H.G.D.J.H.xXJ.J.G.J.xXG.D.D.D.G.xXJ.J.G.G.G.G.xXxXjXJ.G.G.G.H.J.G.G.J.J.J.J.H.D.G.J.D.G.G.G.xXxXjXH.",
"xXJ.J.J.G.J.G.J.G.G.H.D.D.S.G.H.H.xXxXJ.H.H.xXG.G.D.J.G.xXJ.H.G.D.J.G.xXjXxXG.D.A.D.J.xXxXxXG.G.J.H.G.G.G.G.J.D.J.G.J.J.xXG.xXxX",
"G.H.J.G.G.J.J.J.xXJ.G.S.G.xXjXxXxXJ.J.xXJ.G.G.G.xXG.H.G.G.G.G.D.G.G.J.G.H.G.G.G.G.J.xXxXG.G.G.J.J.G.H.G.H.G.J.J.G.G.J.J.G.D.J.G.",
"D.G.G.J.J.J.J.J.G.H.G.G.G.G.J.G.xXJ.J.J.xXxXxXxXJ.G.J.H.G.J.G.G.xXxXJ.H.D.D.G.S.G.G.G.D.xXJ.H.J.G.H.G.H.G.G.D.D.J.H.xXxXG.J.G.D.",
"G.G.G.J.J.J.G.G.J.H.G.G.D.G.G.J.H.D.G.G.J.J.H.G.G.G.G.xXH.G.G.G.J.G.J.G.G.D.D.H.J.xXG.J.J.xXxXJ.H.J.J.J.H.G.J.J.G.xXxXJ.G.H.J.G.",
"xXJ.G.G.G.G.G.G.G.G.J.J.D.S.G.G.G.J.G.G.J.J.xXH.J.J.H.G.xXG.G.J.H.D.G.G.H.H.J.xXxXH.G.J.xXxXJ.D.xXxXJ.G.G.J.G.G.xXJ.D.G.J.J.xXxX",
"jXxXH.xXH.G.G.G.xXG.J.xXG.G.J.J.xXJ.G.J.H.G.G.J.G.J.H.J.G.G.G.J.G.J.J.H.G.J.J.H.D.G.J.G.G.J.H.xXJ.D.D.G.H.J.G.J.xXJ.G.J.xXJ.jXxX",
"G.xXjXxXG.J.G.H.J.G.D.G.J.G.G.J.G.J.J.J.J.J.G.G.H.J.xXJ.G.H.G.G.G.J.G.G.xXG.G.G.D.J.G.J.J.J.J.G.G.J.xXJ.J.xXJ.J.H.J.G.J.xXG.G.D.",
"J.xXxXJ.H.J.J.J.xXJ.G.D.xXxXG.xXJ.J.J.xXxXxXJ.xXH.xXxXG.G.G.G.G.J.G.xXxXJ.H.xXJ.jXJ.J.J.xXxXH.H.J.G.G.G.H.H.J.G.J.J.G.xXxXH.J.xX",
"J.D.D.J.J.J.xXxXG.J.G.G.J.G.xXxXH.G.G.G.G.G.G.G.xXJ.xXJ.J.J.H.H.G.J.J.D.D.J.S.J.G.S.G.H.G.G.J.xXxXG.H.J.H.J.J.G.G.G.J.G.jXJ.G.J.",
"H.xXJ.xXxXxXJ.J.G.G.H.H.J.D.G.G.J.J.J.J.J.H.J.xXJ.G.H.J.J.J.H.H.H.J.H.J.xXH.xXJ.G.J.G.G.H.G.G.xXH.J.G.G.G.xXJ.J.xXG.H.J.G.D.G.G.",
"J.G.J.H.J.J.J.J.J.G.G.G.J.J.xXG.J.J.xXxXxXH.G.G.J.H.G.G.G.H.G.G.G.G.J.H.J.J.G.H.H.H.H.G.G.J.J.J.xXxXJ.G.J.xXJ.H.G.J.G.J.G.xXxXJ.",
"J.J.J.xXxXJ.G.J.J.H.G.H.xXG.xXJ.xXJ.xXxXxXxXJ.J.J.J.xXxXxXG.G.G.xXH.H.H.G.H.G.J.G.G.G.J.G.G.xXJ.J.G.G.H.xXH.G.xXxXxXG.G.J.J.J.G.",
"G.G.J.J.G.H.J.J.J.J.xXJ.G.J.xXH.J.J.G.G.xXD.J.J.J.G.H.H.J.xXxXxXxXJ.J.G.H.xXG.J.H.J.J.J.G.G.J.J.J.J.J.J.G.G.H.G.G.G.G.xXxXH.J.G.",
"xXJ.J.J.G.D.G.H.H.J.G.G.H.J.xXxXJ.xXxXH.J.J.J.J.G.J.xXH.J.H.J.J.D.J.J.xXxXH.G.xXxXJ.xXxXJ.H.G.xXjXxXxXJ.G.G.H.H.J.H.H.G.D.G.G.xX",
"J.J.G.H.H.G.H.J.J.H.G.G.J.xXxXxXJ.G.J.J.J.J.xXJ.xXJ.G.xXH.G.D.D.G.G.G.G.xXG.J.H.J.xXG.D.G.H.xXxXG.G.G.J.H.G.H.G.H.J.J.J.J.J.H.H.",
"J.J.J.J.H.J.J.H.J.H.G.H.G.G.xXJ.xXxXjXxXJ.G.J.J.xXJ.xXxXJ.J.J.xXJ.H.J.G.J.xXJ.H.H.G.S.G.G.H.J.D.D.J.xXH.J.H.J.J.J.J.G.xXJ.J.G.H.",
"xXxXJ.J.G.G.H.J.H.G.H.H.H.H.xXG.xXJ.G.G.G.J.xXJ.H.J.J.J.H.H.xXJ.xXxXG.xXH.H.G.H.G.G.J.H.xXJ.J.D.J.xXjXJ.J.G.J.xXJ.J.J.G.J.xXJ.xX",
"J.J.J.G.J.J.xXJ.J.H.G.H.J.G.G.H.G.J.J.J.J.xXH.J.J.xXJ.J.J.J.J.H.G.H.xXG.xXH.xXxXxXJ.G.H.J.xXJ.xXjXJ.xXH.G.H.xXJ.G.J.xXJ.G.J.J.G.",
"H.G.J.xXJ.xXJ.H.G.H.H.G.H.J.G.xXG.D.xXH.H.G.H.xXxXjXxXG.xXJ.H.G.G.J.G.xXjXJ.xXJ.G.G.J.xXG.J.G.H.J.xXxXJ.J.xXJ.J.J.J.G.G.H.G.H.D.",
"J.xXG.J.J.xXJ.J.G.J.J.J.J.H.H.H.J.G.J.J.H.G.xXxXjXJ.G.xXxXJ.H.H.J.G.H.J.xXG.H.J.H.jXG.G.J.G.H.J.xXxXG.xXjXG.J.G.H.G.G.G.H.H.G.G.",
"bX$ $ $ bXbXbXbXbX0 8 8 8 8 bX8 $ 8 8 8 0 0 0 $ $ $ $ $ bX8 bX8 7 7 8 $ 7 $ $ 7 0 8 bX8 bX8 0 $ 0 8 8 8 6 bX$ 8 8 $ bXbXbX8 bX8 ",
"q mXmXq q q q q q q 0 nXnXnXq nXq nXnXq q mXq q q q q nXq nXq q q q q q q q q nXnX0 nXnXnXnXq nXnXq q nX0 nXq nXnXq nXq q nXq nX",
"0 0 0 $ $ $ 0 0 0 0 0 0 $ $ 0 $ $ $ $ 0 $ 0 0 0 0 0 $ $ $ 0 0 0 0 $ $ $ 0 $ 0 $ $ $ bX$ $ $ $ $ $ 0 $ $ $ $ $ $ $ $ $ $ $ $ $ $ ",
"0 0 0 0 0 0 0 0 0 0 0 0 0 0 $ 0 0 0 0 0 0 0 0 0 0 0 $ 0 0 0 0 0 $ 0 $ 0 0 $ 0 0 0 0 $ 0 0 0 0 0 0 0 0 0 0 0 0 0 0 $ 0 $ 0 0 0 0 ",
"q nXq nXq q nXq q q nXq q nX0 nXq q nXq q q q q q nXq q mXmXq q q q nXq q q q q q q q q nXnXq q q q q q nXnXq q nXnXnXnXq nXnXnX",
"q q q q q nXnXq mXmXmXq q nXnXq q q q q q mXmXq q q q mXmXq q q q q q q q q q nXq q q q q q q q q q mXq q q q nXq nXnXq q nXnXnX",
"mXmXmXmXmXmXq mXmXmXmXmXmXmXmXmXmXmXmXmXmXmXmXmXmXmXmXmXmXmXmXmXmXmXmXmXmXmXq q mXmXmXmXmXmXmXmXmXmXmXmXmXmXmXmXmXmXmXmXmXmXmXmX"
};
