/* XPM */
static char *_3d1c2bee4524a66d0a08d61ddacfd51[] = {
/* columns rows colors chars-per-pixel */
"64 64 256 2 ",
"   c black",
".  c #0000A8",
"X  c #00A800",
"o  c #00A8A8",
"O  c #A80000",
"+  c #A800A8",
"@  c #A85400",
"#  c gray66",
"$  c gray33",
"%  c #5454FC",
"&  c #54FC54",
"*  c #54FCFC",
"=  c #FC5454",
"-  c #FC54FC",
";  c #FCFC54",
":  c gray99",
">  c #ECECEC",
",  c gainsboro",
"<  c #D0D0D0",
"1  c #C0C0C0",
"2  c #B4B4B4",
"3  c gray66",
"4  c #989898",
"5  c gray55",
"6  c #7C7C7C",
"7  c gray44",
"8  c #646464",
"9  c gray33",
"0  c #484848",
"q  c gray22",
"w  c #2C2C2C",
"e  c #202020",
"r  c #FC0000",
"t  c #EC0000",
"y  c #E00000",
"u  c #D40000",
"i  c #C80000",
"p  c #BC0000",
"a  c #B00000",
"s  c #A40000",
"d  c #980000",
"f  c #880000",
"g  c #7C0000",
"h  c #700000",
"j  c #640000",
"k  c #580000",
"l  c #4C0000",
"z  c #400000",
"x  c #FCD8D8",
"c  c #FCB8B8",
"v  c #FC9C9C",
"b  c #FC7C7C",
"n  c #FC5C5C",
"m  c #FC4040",
"M  c #FC2020",
"N  c #FC0000",
"B  c #FCA85C",
"V  c #FC9840",
"C  c #FC8820",
"Z  c #FC7800",
"A  c #E46C00",
"S  c #CC6000",
"D  c #B45400",
"F  c #9C4C00",
"G  c #FCFCD8",
"H  c #FCFCB8",
"J  c #FCFC9C",
"K  c #FCFC7C",
"L  c #FCF85C",
"P  c #FCF440",
"I  c #FCF420",
"U  c #FCF400",
"Y  c #E4D800",
"T  c #CCC400",
"R  c #B4AC00",
"E  c #9C9C00",
"W  c #848400",
"Q  c #706C00",
"!  c #585400",
"~  c #404000",
"^  c #D0FC5C",
"/  c #C4FC40",
"(  c #B4FC20",
")  c #A0FC00",
"_  c #90E400",
"`  c #80CC00",
"'  c #74B400",
"]  c #609C00",
"[  c #D8FCD8",
"{  c #BCFCB8",
"}  c #9CFC9C",
"|  c #80FC7C",
" . c #60FC5C",
".. c #40FC40",
"X. c #20FC20",
"o. c #00FC00",
"O. c #00FC00",
"+. c #00EC00",
"@. c #00E000",
"#. c #00D400",
"$. c #04C800",
"%. c #04BC00",
"&. c #04B000",
"*. c #04A400",
"=. c #049800",
"-. c #048800",
";. c #047C00",
":. c #047000",
">. c #046400",
",. c #045800",
"<. c #044C00",
"1. c #044000",
"2. c #D8FCFC",
"3. c #B8FCFC",
"4. c #9CFCFC",
"5. c #7CFCF8",
"6. c #5CFCFC",
"7. c #40FCFC",
"8. c #20FCFC",
"9. c #00FCFC",
"0. c #00E4E4",
"q. c #00CCCC",
"w. c #00B4B4",
"e. c #009C9C",
"r. c #008484",
"t. c #007070",
"y. c #005858",
"u. c #004040",
"i. c #5CBCFC",
"p. c #40B0FC",
"a. c #20A8FC",
"s. c #009CFC",
"d. c #008CE4",
"f. c #007CCC",
"g. c #006CB4",
"h. c #005C9C",
"j. c #D8D8FC",
"k. c #B8BCFC",
"l. c #9C9CFC",
"z. c #7C80FC",
"x. c #5C60FC",
"c. c #4040FC",
"v. c #2024FC",
"b. c #0004FC",
"n. c #0000FC",
"m. c #0000EC",
"M. c #0000E0",
"N. c #0000D4",
"B. c #0000C8",
"V. c #0000BC",
"C. c #0000B0",
"Z. c #0000A4",
"A. c #000098",
"S. c #000088",
"D. c #00007C",
"F. c #000070",
"G. c #000064",
"H. c #000058",
"J. c #00004C",
"K. c #000040",
"L. c #282828",
"P. c #FCE034",
"I. c #FCD424",
"U. c #FCCC18",
"Y. c #FCC008",
"T. c #FCB400",
"R. c #B420FC",
"E. c #A800FC",
"W. c #9800E4",
"Q. c #8000CC",
"!. c #7400B4",
"~. c #60009C",
"^. c #500084",
"/. c #440070",
"(. c #340058",
"). c #280040",
"_. c #FCD8FC",
"`. c #FCB8FC",
"'. c #FC9CFC",
"]. c #FC7CFC",
"[. c #FC5CFC",
"{. c #FC40FC",
"}. c #FC20FC",
"|. c #FC00FC",
" X c #E000E4",
".X c #C800CC",
"XX c #B400B4",
"oX c #9C009C",
"OX c #840084",
"+X c #6C0070",
"@X c #580058",
"#X c #400040",
"$X c #FCE8DC",
"%X c #FCE0D0",
"&X c #FCD8C4",
"*X c #FCD4BC",
"=X c #FCCCB0",
"-X c #FCC4A4",
";X c #FCBC9C",
":X c #FCB890",
">X c #FCB080",
",X c #FCA470",
"<X c #FC9C60",
"1X c #F0945C",
"2X c #E88C58",
"3X c #DC8854",
"4X c #D08050",
"5X c #C87C4C",
"6X c #BC7848",
"7X c #B47044",
"8X c #A86840",
"9X c #A0643C",
"0X c #9C6038",
"qX c #905C34",
"wX c #885830",
"eX c #80502C",
"rX c #744C28",
"tX c #6C4824",
"yX c #5C4020",
"uX c #543C1C",
"iX c #483818",
"pX c #403018",
"aX c #382C14",
"sX c #28200C",
"dX c #600064",
"fX c #006464",
"gX c #006060",
"hX c #00001C",
"jX c #00002C",
"kX c #302410",
"lX c #480048",
"zX c #500050",
"xX c #000034",
"cX c gray11",
"vX c #4C4C4C",
"bX c gray36",
"nX c gray25",
"mX c gray19",
"MX c #343434",
"NX c #D8F4F4",
"BX c #B8E8E8",
"VX c #9CDCDC",
"CX c #74C8C8",
"ZX c #48C0C0",
"AX c #20B4B4",
"SX c #20B0B0",
"DX c #00A4A4",
"FX c #009898",
"GX c #008C8C",
"HX c #008484",
"JX c #007C7C",
"KX c #007878",
"LX c #007474",
"PX c #007070",
"IX c #006C6C",
"UX c #980088",
/* pixels */
"$ $ $ bX$ $ $ bX$ $ $ $ $ 8 8 8 bXbXbXbX$ bX8 $ 0 $ $ $ $ 0 $ $ $ bX$ 8 $ $ $ bX8 8 $ bX8 8 $ bX$ bX$ bXbX8 $ $ $ $ $ $ bX$ $ $ ",
"bX0 $ $ 0 $ 0 $ $ $ 0 $ bX8 bXbX$ bXbX$ $ 8 bX0 $ bX$ $ 0 $ bX$ $ bXbX8 bX$ bX0 8 8 8 8 8 bXbXbXbX$ $ bX8 8 $ $ $ bXbXbXbX$ $ $ ",
"8 0 0 $ 0 $ $ bXbX$ 0 $ $ bX$ $ $ 8 8 $ bX$ 0 0 bXbX$ $ 0 $ bXbX8 bX8 8 $ $ bX$ 8 8 8 8 8 $ bX$ bX$ 8 bXbXbX$ $ bXbXbX$ $ $ $ $ ",
"bX$ 0 $ 0 0 0 U 0 0 0 $ bXbXbX8 $ bX8 bX$ bX$ $ bXbXbX$ q $ $ bX8 bX8 8 bXbX0 $ $ bX8 $ bX$ bX$ 8 bXbXbXbXbX$ 0 $ U 8 bX$ $ $ 0 ",
"0 0 0 0 0 bXB G 0 0 0 $ bXbX8 bX$ 8 8 8 $ $ bX$ 0 $ bX$ 0 $ $ 8 8 bX8 8 bXbX0 bX0 $ bX$ $ $ 8 bXbXbXbX8 bXbXbX$ $ G B $ $ $ $ 0 ",
"$ 8 $ $ B U G G C U U i i i i i i i i i i i i i i i i i i i i i i i i i i i i i i i i i i i i i i i i i i i U U G G U U B $ 0 0 ",
"bX$ $ $ S S S U F F F d d d d d d d d d d d d d d d d d d d d d d d d d d d d d d d d d d d d d d d d d d d F F F B S S S q 0 0 ",
"8 0 $ bXbXq q C nXnXq O O O O a p p i i i p a a p y M M , cX1 1 1 < , cX: n m m M t u i p O d d d O O a a p q q q S mXmXq q $ bX",
"0 0 0 0 0 0 0 mX0 0 $ O O O O a p p i i i p a O p y M M , cX1 1 1 < , cX: n m m M t u u p O d d d O O a p p mXmX0 mX0 0 0 0 0 0 ",
"mXmXmXmXmXmXmXmXmXmXmXO O O O a p p i i i p a a p y M M , cX1 1 1 < , cX: n m m M t t i p O d d d O O a a p cXcXmXmXmXmXmXmXmXmX",
"$ $ $ $ bX$ bXbX$ 0 $ O O O O a p p i i i p a a p y M M , cX1 1 1 < , cX: n m m M t u u p O d d d O O a p p q mX$ $ $ 0 $ $ 0 0 ",
"$ $ $ $ $ 0 0 $ 0 0 $ O O O O a p p i i i p a a p y M M , cX1 1 1 < , cX: n m m M t u i p O d d d O O a p p nXnX$ $ $ $ 0 $ $ 0 ",
"$ 0 bX$ $ $ 0 $ bXbX$ O O O O a p p i i i p a O p y M M , cX1 1 1 < , cX: n m m M t t i p O d d d O O a a p 8 nXbXbX$ 0 $ 0 0 $ ",
"bX0 $ $ $ $ $ $ $ bX$ O O O O a p p i i i p a a p y M M , cX1 1 1 < , cX: n m m M t t i p O d d d O O a p p 8 0 bX$ $ 0 $ 0 $ $ ",
"$ bX$ $ $ $ $ bXbXbX$ O O O O a p p i i i p a O p y > > , cX1 1 1 < , cX: : > ;XM t t i p O d d d O O a p p q nXbX$ 0 $ $ $ bX$ ",
"$ bX0 $ $ $ $ $ $ bX$ O O O O a p p i i i p a O < > cXcXcX< 1 1 1 < , > cXcXcX> > v t u p O d d d O O a p p q nX$ 0 0 0 0 $ $ bX",
"$ bX$ $ bX$ 0 $ 0 $ $ O O O O a p p i i i p a 2 cXcX> > , < 1 1 nXnX, > : : > cXcX> , i p O d d d O O a p p 0 nX0 0 0 0 0 $ $ $ ",
"0 bX$ bXbX$ $ $ 0 $ bXO O O O a p p i i i 1 2 cX< > > > , < 1 nXcXcX$ > : : > > > cX, < p O d d d O O a p p q q $ $ 0 mX0 0 $ 0 ",
"0 $ $ 0 $ 0 $ $ $ bXbXO O O O a p p i i 1 cXcX2 < > > > , < nXcXcXcXcX< : : > > > > cXcX1 O d d d O O a p p q mX$ q 0 0 nX$ $ 0 ",
"$ 0 $ $ $ 0 $ $ $ 0 0 O O O O a p p i < cX1 2 2 < > > > , nXcXcXcXcX1 > : : > > > > , < cX2 d d d O O a p p mXmX0 0 0 $ 0 0 q $ ",
"0 nX$ $ $ 0 0 0 0 bX$ O O O O a p p i < cX1 2 2 < > > > nXcXcXcXcX2 , > : : > > > > , < cX2 4 d d O O a p p mXmXq q 0 0 0 nX$ 0 ",
"0 0 0 $ 0 $ bXnX0 0 0 O O O O a p p < cX1 1 2 2 < > > 0 cXcXcXcX# < , > : : > > > > , < 1 cX4 # d O O a a p nXmXnXnX0 0 mX$ 0 nX",
"0 0 0 0 0 0 $ 0 0 $ $ O O O O a p 1 cX< 1 1 2 2 < > 0 cXcXcXcX# 1 < , > : : 0 0 > > , < 1 2 cX4 d O O a p p mXmX0 0 0 0 0 0 0 0 ",
"0 0 0 q 0 $ 0 0 $ $ $ O O O O a p 1 cX< 1 1 2 2 < 0 cXcXcXcX2 1 1 < , > : 0 cXcX$ > , < 1 2 cX4 4 O O a p p mXL.q $ 0 $ 0 0 0 0 ",
"0 0 8 $ 0 0 0 0 0 $ $ O O O O a 1 cX< < 1 1 2 2 nXcXcXcXcXcX1 1 1 < , > 0 cXcXcXcX$ , < 1 2 4 cX4 O O a p p mXq $ 0 0 nX0 0 0 0 ",
"0 0 $ 0 0 $ 0 0 0 0 0 O O O O a 1 cX< < 1 1 2 2 < 0 cXcXcXcXnX1 1 < , 0 cXcXcXcXcXcX$ < 1 2 4 cX4 O O a a p mXmX0 0 0 $ 0 0 0 0 ",
"0 0 $ 0 0 0 0 0 0 0 $ # # # # 2 1 cX< < 1 1 2 2 < > 0 cXcXcXcXnX1 < nXcXcXcXcXcXcXcXcXnX1 2 4 cX# # # 2 2 2 q cX0 0 0 0 0 0 0 q ",
"0 0 0 q nX0 q 0 0 $ 0 cXcXcXcXcXcXcX< < 1 1 2 2 < > > 0 cXcXcXcXnXnXcXcXcXcX, 0 cXcXcXcXnX2 4 4 cXcXcXcXcXcX8 mXbX0 0 0 0 0 0 $ ",
"0 $ 0 L.mXq 0 0 mXmXmX# # # # 2 1 1 < < nXnX2 2 < > > > nXcXcXcXcXcXcXcXcX< > > 0 cXcXcXcXnX4 4 4 # # 2 2 2 mXmX0 0 0 0 0 0 0 0 ",
"0 0 $ 0 nXbX0 0 0 0 0 # # # # 2 1 1 < nXcXcXnX2 < > > > , nXcXcXcXcXcXcX< : > > > 0 cXcXcXcXnX4 4 # # 2 2 2 mXL.q nX0 q 0 $ nX0 ",
"0 $ 8 $ 0 $ nX$ 0 0 0 # # # # 2 1 1 nXcXcXcXcXnX< > > > , < cXcXcXcXcXcX: : > > > > nXcXcXcXcX4 4 # # 2 2 2 mXL.0 $ nX0 0 0 q 0 ",
"0 bX0 0 0 q 0 $ 0 0 mX# # # # 2 1 1 < nXcXcXcXcXnX> > > , nXcXcXcXcXcXcX0 : > > > > , nXcXcX4 4 4 # # 2 2 2 mXmX0 0 nX0 nXq q 0 ",
"0 0 0 0 0 $ 0 nX0 0 q # # # # 2 1 1 < < nXcXcXcXcX0 > > nXcXcXcXcXcXcXcXcX0 > > > > , < nX2 4 4 4 # # 2 2 2 cXmX0 0 0 0 $ 0 0 0 ",
"0 q q q 0 0 nX0 0 0 0 cXcXcXcXcXcXcX< < 1 nXcXcXcXcX0 0 cXcXcXcX2 nXcXcXcXcX0 > > > , < 1 2 4 4 cXcXcXcXcXcXcXmXq 0 q 0 q 0 0 0 ",
"q mX$ 0 q q mXmXnXmX0 # # # # 2 1 cX< < 1 1 nXcXcXcXcXcXcXcXcX2 1 < nXcXcXcXcX0 > > , < 1 2 4 cX4 # # 2 2 2 mXmXq q 0 mX0 0 0 q ",
"q 0 0 0 $ 0 bXq 0 0 0 O O O O a 1 cX< < 1 1 2 nXcXcXcXcXcXcX2 1 1 < , 0 cXcXcXcX0 > , < 1 2 4 cX4 O O a p p q cXmX0 q $ 0 q q 0 ",
"mXmXq 0 0 0 0 mXq q 0 O O O O a 1 cX< < 1 1 2 2 nXcXcXcXcX1 1 1 1 < , > cXcXcXcXcX< , < 1 2 4 cX4 O O a p p mXcX$ 0 0 0 mXmXL.nX",
"mXq q q 0 q 0 q 0 0 nXO O O O a p 1 cX< 1 1 2 2 < 0 cXcX1 < 1 1 1 < , 0 cXcXcXcX, > , < 1 2 cX4 4 O O a p p cXq q 0 q q mX0 mXmX",
"0 nXq 0 0 q q q mXq 0 O O O O a p 1 cX< 1 1 2 2 < > 0 1 , < 1 1 1 < nXcXcXcXcX, > > , < 1 2 cX4 d O O a p p cXcX0 0 q q 0 $ q 0 ",
"$ 0 0 q q q q q 0 nX0 O O O O a p p < cX1 1 2 2 < > > > , < 1 1 1 nXcXcXcXcX, > > > , < 1 cX4 4 d O O a p p q q q nXmXmX0 q 0 $ ",
"0 0 0 q q q 0 0 q nX0 O O O O a p p i < cX1 2 2 < > > > , < 1 1 nXcXcXcXcX> > > > > , < cX2 4 d d O O a p p cXcX0 mXmXq 0 nXq 0 ",
"mXq 0 0 0 0 0 0 0 0 q O O O O a p p i < cX1 2 2 < > > > , < 1 nXcXcXcXcX> : > > > > , < cX4 d d d O O a p p mXmXmXq $ 0 q q mXmX",
"L.mXnXmXnX0 0 0 mX0 q O O O O a p p i i 1 cXcX2 < > > > , < nXcXcXcXcX, : : > > > > cXcX1 O d d d O O a p p mXcXmXq 0 q mXq L.mX",
"0 mXL.mX0 q 0 nXq 0 $ O O O O a p p i i i 1 2 cX< > > > , < 1 nXcXcX< > : : > > > cX, < p O d d d O O a a p cXcXnXq 0 q mX0 0 $ ",
"q mXmXq nXq q q mXq 0 O O O O a p p i i i p a 2 cXcX> > , < 1 1 nX2 , > : : > cXcX> , i p O d d d O O a p p cXmXq q 0 mXmXnXq mX",
"q $ $ q q q mXmX0 q 0 O O O O a p p i i i p a a < > cXcXcX< 1 1 1 < , > cXcXcX> > t u i p O d d d O O a a p cXmX0 0 q 0 L.q 0 q ",
"nXmXq mXmXmXq q 0 0 nXO O O O a p p i i i p a O p y > > , cX1 1 1 < < cX: : $Xm M t u u p O d d d O O a p p cXcXmX0 nXq 0 $ 0 0 ",
"q 0 q nXq q q q q 0 0 O O O O a p p i i i p a a p y M M , cX1 1 1 < , cX: n m m M t t i p O d d d O O a a p cXL.0 q 0 q 0 mXmXq ",
"q q q mXmXq 0 q q nX0 O O O O a p p i i i p a a p y M M , cX1 1 1 < , cX: n m m M t t u p O d d d O O a a p mXcXmXmX0 0 q q q 0 ",
"0 0 q q 0 nXq q q q mXO O O O a p p i i i p a a p y M M , cX1 1 1 < , cX: n m m M t t i p O d d d O O a p p L.mX0 0 0 mXmXnXq 0 ",
"mXq q q 0 $ 0 nXnXq 0 O O O O a p p i i i p a a p y M M , cX1 1 1 < , cX: n m m M t t i p O d d d O O a p p L.L.q nXnX0 $ 0 0 mX",
"q q 0 nXnX0 nXq q nX0 O O O O a p p i i i p a O p y M M , cX1 1 1 < , cX: n m m M t u i p O d d d O O a p p L.mXnXq q q q q nXnX",
"q q q q nXq q nXq nX0 O O O O a p p i i i p a a p y M M , cX1 1 1 < , cX: n m m M t t i p O d d d O O a p p cXcXq q 0 mXq q 0 nX",
"mXmXq q 0 0 nXq nX0 nXO O O O a p p i i i p a a p y M M , cX1 1 1 < , cX: n m m M t t i p O d d d O O a p p cXcXq q q 0 q mXq mX",
"q q q 0 q q mXq q nX0 O O O O a p p i i i p a a p y M M , cX1 1 1 < , cX: n m m M t t i p O d d d O O a a p cXcX0 q mXq 0 q q 0 ",
"nX0 q mXq mXq nX0 nXnXO O O O a p p i i i p a a p y M M , cX1 1 1 < , cX: n m m M t u i p O d d d O O a a p cXcXq q 0 0 nX0 nX$ ",
"q mX0 q q mXq q 0 q q O O O O a p p i i i p a a p y M M , cX1 1 1 < , cX: n m m M t u u p O d d d O O a a p cXmXnX0 0 0 nXnX0 0 ",
"bX$ $ $ bXbXbXbXbX0 8 d k h h h g d O s O f f g g p i u 2   5 5 5 # 2   < m M u y i i a d h g g g d f d O f q 0 8 $ bXbXbX8 bX8 ",
"q mXmXq q q q q q q 0 nXL.L.cXL.cXL.L.cXcXcXcXcXcXcXcXL.cXL.cXcXcXcXcXcXcXcXcXL.L.mXL.L.L.L.cXL.L.cXcXL.mXL.cXL.nXq nXq q nXq nX",
"0 0 0 $ $ $ 0 0 0 0 0 0 q q mXq q q q mXq mXmXmXmXmXq q q mXmXmXmXq q q mXq mXq q q nXq q q q q q mXq q q q q q $ $ $ $ $ $ $ $ ",
"0 0 0 0 0 0 0 0 0 0 0 0 0 0 $ 0 0 0 0 0 0 0 0 0 0 0 $ 0 0 0 0 0 $ 0 $ 0 0 $ 0 0 0 0 $ 0 0 0 0 0 0 0 0 0 0 0 0 0 0 $ 0 $ 0 0 0 0 ",
"q nXq nXq q nXq q q nXq q nX0 nXq q nXq q q q q q nXq q mXmXq q q q nXq q q q q q q q q nXnXq q q q q q nXnXq q nXnXnXnXq nXnXnX",
"q q q q q nXnXq mXmXmXq q nXnXq q q q q q mXmXq q q q mXmXq q q q q q q q q q nXq q q q q q q q q q mXq q q q nXq nXnXq q nXnXnX",
"mXmXmXmXmXmXq mXmXmXmXmXmXmXmXmXmXmXmXmXmXmXmXmXmXmXmXmXmXmXmXmXmXmXmXmXmXmXq q mXmXmXmXmXmXmXmXmXmXmXmXmXmXmXmXmXmXmXmXmXmXmXmX"
};
