/* XPM */
static char *_48443849b424fcfc2c1ab8961da8192[] = {
/* columns rows colors chars-per-pixel */
"128 128 19 1 ",
"  c #8B0000",
". c #E30000",
"X c #D70000",
"o c #EF0000",
"O c #530707",
"+ c #5F0707",
"@ c #730000",
"# c #7F0000",
"$ c #670000",
"% c #4F0000",
"& c #9B0000",
"* c #5B0707",
"= c #B30000",
"- c #430000",
"; c #470000",
": c #A70000",
"> c #BF0000",
", c #170F07",
"< c #CB0000",
/* pixels */
"%$ *$-**@$$$-%@*-*%**$ @ $%%-@@*%;*--;@;%$@-*$**%#$$;@%-%-$*$;$@@ ;$*%$@ $;*%*#*#@*#&%***&$ $$@;@$--%*%*#**$;*@$**;%%*$** ;;--@ ",
",**#@$;;@%*@-*%*-;*%**$ #;;%- #*$-;;-;$*;$*;$-@@*$*&@%*---@%**$@&@-$$;$$$*;*@*@$ **#@*$** ##-%%$@$-**%*#@;;$***@*$*%*** *:-%%* @",
"%-;##$$*%;-$**;*$%*;**%$@*%$-$#*$;*;%*$%*$$$*;;-@$%% ;#@;-@*;-%@@--$;-$$*$*$%$=*;%* $$;*;@# ;-%@$@*-%$$$%*%%--;;*$**%%**$=*;$$;*",
"*#, @## *-***$;*&;*$@ ;%;;*%-*$*$@-@;;**$-$-@---$%*-$@=#$%$$;-$# %%@;$*--%%@-$:*-;* %*$@$#@$$@;$%#$--@*-*#@%%-;--$@$**$@=:**#;-#",
"%$,*$*@#@*&$%*;;$$**# --$%$--%$;% %$#%-$ %%;*-;;*$;;$: $$$;*%;& @$& %$$-;%**--$ %;*@* $$$#@@-;;$$ *;-$$%@:&-%@----$@@# *:@$@$;*$",
"-*;%#$**@****%--@ $;  %@$;%;;%$*- %%&@%*%*;-%;;*@@;-%@$$@%$-;%$ #$# *@#%,$*;;% =$-*%*#%@$;$#*@-%*@*;-*$*$  -%;----;*$#$-#&$#$-$@",
"*%-%@ %%$*@*;---* @- #**%;;*-*@*-@;*@ $%%%$;*%;@@;;$$@;;@*$;%%$ #%*#@@#$%@*;$% =$;@;& $$$$*  $;*$**$-@$--@$**;%-%-*# #***$@#%$@#",
"%*$$ :*;$%@$*;;;% %$$ ;*@;$*-$%*%;; *$&$*;$-***@*;@#$#-%@* %;$&@;;% ::##$*&%$*$$$@%$$@$$   @@@$*#@$ $ %;@$@%$%%*;-%@ &$#@$$ $$@#",
"*$;@**$*%-#$@#%-@%*$#$-%**%%;*$$%;;#;@ # ;*-$*-*-%  %#;* $*;;#  ;*;;## @$#@;-*#;@@-=#@@$=$$#$#@;-;@#;;;;*$$;#$*;;;;$ %-%$-#= $$#",
";*;;-$$%** *  -$@%;;$ -%;*;$%@;$%;% $$: #%;;*%@*-$##;$;$#*--- =@;;%-##=$ #$;*;&*$$$  @#$ @ $*$*--% @*;%%;&@;@#@-$=@%#;;;&$=  @##",
"%@*%%@#****$&@$ @%*$@ ;;**;**%**$#%$;*=@%;*-;*#$-$$@$=  :*;;% =#$#$; $#*  *$;- $-@@ &$@*  $%$%;%%$*@$;$**&&;%@$;*&-$ * % & %*@##",
"-$;%*;;;*;*%=##@;%*$$;%;*$;;;;*% $*@%$$-%&@%$%$$*@;$$ & *;;;*   @ ;-#*$-#$$$;* @$;$ &#@%@ $;%$%%;@%$$;$;*$%;;;$;%$;@@&;-#= @;$#%",
"%%;*;;;%;-*%*;%@%%**;%;;%*-$%-%*$-*@;@*%$$@;--*$@-;%$ @;;;*-*# $$@-*$-;-*%$@;* *-%*  @$*@%**;*;*%%-%*%*;%*%%%%*;$@;;;$-*#@$-;-$*",
"%;;;*%;$%-$$$%;***$*@$;;;;$%*;;;;*;;;$;%%*@;%;%$%;%-@ $%@*%;;*$*-%#@$@;%*; *%;@%%;*@  *#%%$*$*%$%**;$*;*%*$;%$%%-**@;#*&*$#-*%%*",
"$;%**%*#%; $*;$*;$@*@$%*%*;$&;;;*$;;;*;%;*#%;%;$*%;;@#-;$$;-$;;%;-$%;#*$;;@*#;;;#*$; &%%**%**$$;*-%;*%%$***;;$%;;%;;%$$@;%$$%%%@",
" $;%;%@$%$ *%$@*%$**$$$%%;%##%;;*@%;;*$%;% *;;*$$*;$$#;*$#%%$;*;;;%;;*;$$;$*%%*%; $%##$;$$%#%*%*$%*%;;;#$**;;$$;$;;$@@&$*@*%%;; ",
"#$%;;%%%*%=$$*#;%*;;# $*;%%%#*;;**;%;%;%;*$$%;%$**;%; %$$@;%@;*;%##;;;%#;*$*%*%;*#$$%;@@$$*%%;%%$%*;;%*#%$$$;$$;*;%$   $*;$$*;% ",
"$%;;;*$;$$  ***;$**;%$@*@$%%@;%#@;;#%%;$%; #;;;%*$%;%$*$$@%;@%*%#;;$;%$@;%&$$%*;#*%$*;@#**$*$*$%@$;$%;;#$%*#%%$;%*;## @@#@%&$;#@",
"@**@%%$%%;$@@*;*$;$**;$*#*%%&*$$$@*$$;*#$$ =$*%*%%$*%$@@$*%$$$$$*-*$*;$=$ #$$%$$**;$$%  $*@$$$%%#$;@$;;**$;$*%*%;#*;$#$$&@#&&$@*",
"$*%%;%$%;%;$$;*%$**$$@*$**%*&@%*$*;$*%##$$ &#$*$%@$$$$$@%%;%% #;;*$$;%%=  &$*   ;$%#@@##%*$*$**;$$;$%;%%$$$;*%%-%**;; @%@##@$;%*",
"$;$$;%$$-$*@@;*$$%$$& $$*%$;$$%$$*$*&@#$@*$$#$****@$*;@@$$;;  ;*%$@*;%;##  ##= @;#@@@ ;%*$*$$*@*=#;%%;%$$$@%$#;;#@#;*$ $%$ ;;$;*",
"%%#@%*$*$&*$*%*$*;$&& $$*;$;**%%@*#*$ @& ;%;%*#%$$$$%$$*$$%$ *;$$***** @$#  #&#$$$&@@ *%# *;$$&* $%$$**$@ @@$%;$ =%;-%$$#&*$$#;#",
"%*& $ @%*%**%*$ %*$$$@$$%%*$%#%%#$$$$$@**;$*%***#@%*$$@%$%$#$### *$****%%$%#  $@#%&$ =%*$$$@$**$$@*%@$$%$%$$%%**$%$$%% @ #%$*$%#",
"*%  @@***%*%@*$@-$*#*$#@***@%@#*$*#$*$%%*%*$*%@$#$@*$$**$%@$$# @$*$***%%**%@# @#$%#$$ *$$@#@@@*#$***$$%$#**@$$$%%*$#*%%*@*%*%#*$",
"$%& %%*%$*$;%**@$$$;$$**%*$$*@@***$**$%%*%%**%$@#$;$# ***$$$$*@@$%*%$****$%%  @@;#$;%##$#@@$*$$$;*;*$**$$$##$@$%;*$$@$%@*$*;%@%$",
"*$&#%*%*%*&%%;#&#%%&$$$*%*;*@*$*$#$%@$*%%*;*@%%*#%**$#*$#%%%%;**$$&*#;***@;$$$*$*$$**$$#$@==$@$**$;* @*$#$**$ %$*%%# @@%%@;%%$**",
"%@&*@$%$$%$%*%@=%%* #$*$*%%*$$$*$@#$$*%%*$*% #%%#%&$$@* @%%*$**$$$@$**@@%*%%  $$#*#  **&# &>&=$$*$%@&%$ $$**  $$*$#$#%*-@$*%%$@$",
"$# $@$$%$%%$%% #%%*&$$*$$$#%% #$#$#***%**$%* @%$@ @@%%$#=***#*%*$#$$*% @%$*$ =$$ @&$$%$#   =  $%*## @$###*$*$  **$***$$*%#$$%# #",
"$%$  *$#@*#*%%$$@@%#$$@#  #$*$@@*$$$%*%*%%*$@@%$%#$#%*% =$$$$%*%$=*$**$$%@*  $***@&%$%*@&# ##  %%$ @%*%$#%**& @*@$**$@ %*$*#% $ ",
" $##@$$$%@%$- $$@$**#$$ #   @#%*@@$**%$$%*$#$$*$%*@$**$  #*$$$ *@=$%%*$#*%$ @ **%  *#$%$$$ %@==*$ &%#$**$&$%&@*$ #%@*#&$*$%#$$% ",
"$  *@$$@%#%#%$$ &$ & $*#$$ $%$%$#$ $$%$$**#$*@$ *%$$ $# :$*$$@#$@$%$%*$#$%#>$ $$$& $&@*$*@#%#  % # @$$*  # % %*$  %@% >$%#%@*%%$",
"%##$@%$$*#%#%%%# $ $#%%*@@@$$$%$ @*$#%% $*$$$$$$*$#$   $ $*@$$$  %@$%$@$$%&>*% @$$ # $$$ $$$*#:@ $###%$**&*$$$@$# *@*$ *$&%# %**",
"$@$$$$$%#% $%*%$*%%%@ *$** @$$%%#**  @%@ $*&$%$%%#$$$&&$$$*$@*$ &%$$*@ *$* =%%#$*$$%#$&*$@$**$$$%$$$ *% $$#$@@$%@ $$$*$%*@*  -% ",
"@@*$#&$*@$@&*$%%%#$*$@$$%$@$  $% ## &#$&@$$&%*$@$$#*%*  $$$*$*%  $$* @#**: >*$#$$$$*$$#%$ $$* $$ $$%% :#***@  $*% $ $%#$% % >*#*",
"%%%%# =#$%  % %% $$$$$$**@&% &$*&#$   :$%$$**$**$ $$%$ ##*##**%$  @#@:@$ &$> %#$@&@%$$$%*$*$$#$#&* $% # $%%$$#&$* #$#*@ #&%#&$ #",
"*@$%%# * #& % ** %*$$*$$%@ %##*$ %$$& @%  $$$$$$$ &$*#& #@ : %$$  #$$ @$$$%&>@   $@#* @* &$$$ @ :$&$*%%=:@*@ #@%$ $$ %#&%@%: #  ",
"##$%%@$%  $@%$**$%*@$@#$@$$$ $$# %*$ &@%$&&:@$%%% $    $*$$$*%*% =$@$ # * #$&#  =$&#&: &      $$ @#%$$%$& $$$*$$#@$$$  &% $=&& $",
"$$@%*$$$$$* %@%%@@*$%#&$@@ %##$*$$$  &$$=:&>&#%%$%$&&@#%%$$@*@$% :@%$=  %$&$ @##  && >    # # $ :@@%$$$*$$#*$@ %* &$% $#$@$$ #$$",
"*$*@*@  $*@@*$%$@%* **$$$@@** #$#*$  $%@ &*@&#%$ % =&$$$$**@$@**&$$*$&#*$& #: ####$@$*#&= >@$ @#&$$@ $%@@@*$$$ $*#=$$@@ * *$$@ *",
"$$*$*@&#@$$$$***#$$$$*@$@$@$*#%*$%   * @@%$*&#%$$*@&$*%$***&@$**@#*$$$$**$@@&&$**%&@$@ && =@$$ @@#$$#$ #@%$$$*$@@ &$@@$ *#$*$&**",
"% $$%$  %@$$***$#*$$$%#*&@*$$ @@%$&*$$$*$ %*@@##$$* $%****%= %@*%@$@ *$%%$%$$$*%%$$%**#@&&#$$*@$ @$$ *$#@#*%%$@ @@&$&$*%%$* *$@*",
"@#$$ &&&@$@$$*$$*#  #%@@ $$&### $ >*@ @@$$% #%# #$$=#$*$$$% #%*#$@ @ *@**$#@$   $$$*$#&@ @ #@#@@$@@@ $@@ @$@@ @ $@&@# ***$$$$$$*",
"##$$@#*&&$$$@@@**#$&@*@@ #$#   &  @**#$@$$@@$*$& *@&&@*$***$$**$@@@@@ @$$@@$$@@*$*@$$@ $ @@ @@$@$$#@@@=$$$  $&&*$ &@@&$*$@@* &@*",
"@&***$-@  *$$@@** @ $#$$@#* @$@& @$**#@$@@@$$*$$&$#&>*$$*@*$$@@* #*$#&$*@@#$$@:***@@@@##&@$ $#@:@$ @**&#$@@@ &&*@ & @:$$$ @@#  @",
"  *#@* *@@****$**@$$$$ *@:*:@**= @**$&:@&@* @$$@@$& :*@@*$$*$@@$@:@$  #*$*@#@$&$*@#@$$&>&@@#$##&$$@#*$::$@$#&&@-&= $  @$@@&@$#*@",
"# $# $@@$ @**$$@@$$*** *##$#$**&@$$*&> #&@*@*$@@$#: #@**$$@$$$&@@#@* &#*#*#&#$&$$&#$@@&&= *@@  @$$ @$*$@@:@$#&@*@ $$&#$$@& $$$$@",
" &$@$@$@$#$@**@ @*-$*$$@ $$$$@@#$$ $$ *@& $@$@@$ $ & *$*$ @$#$@$$@** &>&$* #$#@$ *$#@ & &:@@: $@$@@$@$$ @#$$@#*$*&@$@$$$@@$  $*@",
"$#=$$@@@ @@$**#$$ *@**$$@#*$@$*@$ : $$@$@& $@ #@ @ &@$**@@$$#@#$*@*$  =:#$&@@@@$ $$#$@$ # &> $@$#$@@ #&@ &**$$ &$#*$@@@*  *  @$$",
"$@>@$@@&&****$*&$&**$# ** @# $*@$ >@**>#*  @&& @@$@& @***$**  @$$$**@ #>&&>**&$$@ $@$**@*&::@#@@$$$$>&>$@ $@*   #*@*@ **$$*& **@",
"$$=@@@ >@ $$*$* &&$$$*@$$@**@ $ $@&$*$  #$#&=>&$&$ @:#**$$$   #$= $$ @ :&:>$$@#@  $#$*@ $&><&&#@@$* &&&#@ @& $$ @@&$#&*$$ $  @@$",
"$* @$#>:@$@ *@* < **** #$&@$#$#$$# @@@#>#@   &> > @   $*$$$   @$>&$$& * &>&*$ &@* $$*$@ $ :<&#@ @*$&&&&@$>#>&     # $@@#$ @$& @*",
"**## &= @$@$$@$ >  @$$@#&>&$ *$*# #  = >:*$$$  :&@@$$@$*$*$ #& $@&*@>&*$&&& $ >$*@$ $$*@@*#:  @ ** &    &=  &    $$ $$$@$@ *&@$$",
"*$@$  &&$*:#@$*$> &$ $##&: $**$*&& $@&   $ $ #    # $@#$@$$$ & =* * && @&&&&@  *$ @ $@#@$$  & $@*$ &@@@> :&@=  *$$$$$**#@$ @ @@@",
"$@ >&#@&&$ &$**$*:@$ $&  > ****$& **$& #$  $$@  *  @$$#$$@$*@#@$$ *  &#&&&& @@@$ :$@@&   #$$>&$$@#  #$$# &&@& >**$$*$$$  @&& $$$",
"$$&> &$&==<&#$*$$>#$#$=&&: $$@*#&:$$#& #$ :$$   $#&&  ##$$$$& $$#  &&  &: &= $*=<& #&< #:# #&&& #@##&@ && &==$&&@ &&>  =&$ :#$@#",
"$ &  $$#&>= $$$#*@@$@$&  @@$$@*$ @@$    $ & && &@$ #   # $&*&#$$@&: ###&>   $@$&&> &<= &:@#  :&#$@@$ & &$$&=##    &::#*@ #   $# ",
"@&& $$$ $<<$$@$@-$* $@$ *$$$- $* @ $= &$$&@ :>& $$@$##&&#@$* $#*@&   $# :$@&$$$&&<&&>>&&&&&# @ :@$@$ ##&#$@@@@#@##>=&@### & $$  ",
" :&$$ &*&>:#$#  $@*> $$@@@ $*@$*@&* =@$$# #  &&$$#@&#@# $ &$@@ $$#$$$>& &$@: *#&=&&&=<=  : $$@  &$$#& &&&$ @@ &#$@ =&&&= $ =@$&&",
" &&&:& $<== @:# $ $:#@$#& $@$$@$ $ &$@&$ && $ & @#$ @#@$$&=$& :$O$ @$@&$  @ &=&#&=:==<= :#$#@@   $ &  &&&$## =&# &$&  #&&$$=& &@",
" # :&:@  <&=$ @ # $@@#$$$$$$@$$@$$$ $@ # $&&$  $@$#$@@$$$$<&&&>#$$&#$@&$@$&&=&$@ $====:&&###& & :$&##&  ## #@ $$:&#@@&&= $@<& $ ",
"$& $#&#$#&&:$$$ #@$#$@# &$@ $@ @$$& $ &:&$ &## $@#$ @#$$&$ &=&<&@@  $&&O@#&#&&$# $  &==&&:##@@&=<@$  #$   $@ @@$<>@#$=: =$ :#@$@",
"#&=&&& $$&:&$ $ #@$#$# #@#@=$$$##   $$::=$ &#=&$@ #@ &$@ $  @$>&&$$@# &$&@$$$ &$ @& :<<&<& &##==<@ #& $&: $@ # @&: & #=#  &< $@ ",
"&@@<>& #&     @@##@@##$#@$#<#@ @##$@$#&@#@&&# :@ &$ &&@ @$&$$@&&&$@@@& #=@$@@@&$= $ &===<:&&#$<=&& @  #&&:&@@ =&< &=&@&=&<&<@@#@",
"&#$= =@ &$@&@@$$@# #&#&#@@:& $$   ##:  @ @&&# =$& @ &# #$# #$$$:&@ $$=&@&@@#$#:$&#$:&==:<: :@$&<: $$#&&$ &&##@ &$#&: @=&:<#&##@$",
"&&   &&$#$  $  O@  $ #  $ <&#@$  $$& #$#& &&# &@$@#    ##@##$$$ <##$@<=$&#@$$&=$  $=:<<&<&&$# =: #&$#&@$#&#=&=&#$= &&$ &&&@   &$",
":#@ @ : == @$@@$#  @#$&& #  &#@$ @###$ #&  &#@&=@&# #&#@@@$#$#$#&: @ ::$ # # @&# #@&&&& &::@&$<>$@#$#&@$# $    &&>@&  #: &#=  #@",
":#@&$@ =# #@$@@$@# @@$& &#$@ #$@@$@# & $ @ & $&&@#@@@##@$#$ @#$@@&:##&& <## $$#  &# #&: &&&#@$= @#@$#@@##@#&$ @&@ $ &@$ =@ &@#@@",
"& @& $$# ==@&&@$$@ #@ <& # $@$$&$ $  @&$#$@: $&: @&@@:=@##@$@ $##< $@::&<$# #@@#& # @$< :&&=&:=$&& #$@#@@$ : @@@@ $#= @=>##&@#@#",
"> ##@@@$=&  &@ $$#&# :==&# $@@$@@$@#&$@&#$$&@ &&#@  @@&@@@@@@&$@ =:# &::&@=  ##&&@&#$$:&& #  > $ &@#@$@@&$&&&&  @$$&& @#:&#  =$@",
"#& $@@@@:&& &@$@$# $#&@$@&$$@@$= @@&&:$##@#@@=&&$$ : @  $@@@&&$ @=: && &&$##   &#$#&@$@@@@  ==$  &#  $  @#@@#&:&@@#:&@# ::<&&#$@",
" @# &@ :&:= ##@$$@O@O$$$$& $  #<&# O&=$&  :&::&&# &= #& $ &@&#@@&&=:&:&&& @  =>:&$&<&$@# #& & @@#=: @@#&## &# & @#&& $O&&<X>=$$=",
"#$ & O@& <X@& $$$$ $@$@@&> $#$ <::@@  #$@&=&#@& @:=&$ ##$&:$& #@<&&>& &= #@@  :>&&=:&&# @  #&##$@ :@@# &@ &=@@>## $:>$#&:<=<& @:",
"  ==&@@@&=:## @@@@$$$@#@$&#$#@$=& #@#@@ :&& # $&@#& # $& =&$ @#$&: #@$==$@@@=#&&& ::&&   ##   & @$  @  &###&  &@=&#&:$@ $& > @  ",
"==$@#=&:<X & $&$& $$$$@#$##$#$$@$$ & $@ :=&@@ $$&@  #& &$&@&#@@@::=$@#X # $ # &&:=&:& & & &  &=#  $$@&=## #&&:## =$#=@$&#: #@ ##",
"&&$#  X:>> $ &@$ &$$#$$$&  @#$$&@@@:@$  <=> @ @& &#& &&   @&O#&:&=@@$& #@@$$  ::: #:&=&&    &&  #= &$ =      &&& #@ & &&=: $ &&$",
"&#$ & &X=##&$&@$  #  @$$$#$# $$$@$$ #&&#&X&   @&  $ :&& @@#&$&===  $##& $@ $&&.>&$=& =&  @  & #&&&= $#:&  &&$ & #  # <&=>X@@ >& ",
"&@    =X @ &&>#$&#@ &#$&@$@&#$@$$#$>&=## &&   @   $ >#   @#&#&::=&$$##$& @& &&X=   #@= &  = =# &&:=&&  &  &&&$#@ $#$$=:=X. $&&&$",
" #  $@&X$@ & &&#&$$&$&&$$ &# $$$$@$&=&& @&   # #  $:&$ = #@&$&=::=#$  &:$#&$ $=>&@@  = & && =   :># &&#&=$ &$  #@$@$$=:=:X:&@ & ",
" # &# ><   &=  $#$&  $$# && & O  @@= $@#&   ## # & =&# & &  $ && = @#@&= &##&$:= $ &@=&&&&  =   =& &#@# & :& & # $$@ =:=&&:=### ",
"&# # &#  & :  & @&= ==& ===&& $$&&#&&@#$&  >& &#   #> &&$  @$ #:@>= # $$&$   @ <@ @@&=:: >&&:>& > &&  &#&&==<&#   #& =&:= =:&  $",
"&  #&&$ &&#& &::&<$:&X<::XX&#&:@X: &:@@#&&>:&&  :#&@ $:= # $ &&@&: $$=##   : >:: #&==X==&>&&:& &&&=   = &=XX:#=@ &&#$&&&& &==&& ",
"&#&# :& && &&& =<&# @$===X:@@$#&X&&&: @&&=<X&& && @  @&X=@  =&&$&&@ @& &#&&=&>X:= &X==&: &&=X  &  =     >X&X $= @#  $$    &X=X&#",
"= ##@&#& =   && <= & # =XX& &=&  @@ <& >  :X& & &@## $@=# $ &#&  =& @:  @&&&&&=<= =====  >&X>#   @># &= #<& &# @  >#    @&&XX&# ",
" #  @@&=<&& & @@==@@ =# &=&&=&@@@@@@     @&>X& #> # &&@&@    # #   @@   # # #@=   &<=>=  &&=@& &&@    =   &#=  @  =  & =#& &= @ ",
" #& $=&==#  # @$ >#@ & ##&#   #$@# @$#@$ @&X:= $&&@ &&=# @    @ &  @&O#$ &@  @&##$ &&X&$ &&&   & =   &=###       &=   #&& @ #&  ",
" & &# &=&@&# ##@&& &   #   && # @@#@#@&@ & ===&@   &&&&    &  @@=   @@  = #& #=#&&&  &=&&  &   &#=@&&=:#   &   ## =   $ &>#&#&&&",
": #&=X&&:@@& # ##& &#  @*@ :& @##@@ X &@& &. =>#& &:  &   =   @@.&=&O @=>&@  #&&&&# @@& & &:   && #&=..  #@:@ @@ #=& & #&=  # &#",
"&=  &>@&  :&=& @@ &## #@@@: &@ @ @##=:=   =&@&=&=& @ :&  &>  >@@<=:&@&>XX= =&&====& &##&& :=  &  &&=&.== @ &  @@&  =&&#&=X#==: =",
"== &  & &&& &=&@@   #@  @@    &   #@=&>&  =&  =&X== ==& ===&@=#@=&=&#===&===X@&==&=  &#    =&= & &&  ==== #<=  #  >==& > =@===&=",
":=& & :#=:&@  :&  @ @@  @#@@&#  #:&#& & @ X & & =.X.==><>>> #   & &&&&=>:&&== #>=:&&&=  &# &&=: #>&& =X==>&X==&&  &=== =& ==&=:=",
"===== :  #& :& .:@ ####&###@:  @&# ##&&&@>.& &#::>&>&&=:::&&  :@:   :=>>   >=@#&=&  :< : # === ##&& : &&=.&>== @##  & #& :&=&&> ",
"&&>X==>:#&::&@#=.  #@#:& @#@ @#@#@&#@&:*&&>&#&#@   #@&:##:>=&:=@&&#@&==>: &=   #=>@# =  &@&.:=:   & ::&:=. X= *@#@@# &@ & >=   @",
"= &=&=.&## > @=&=&#> &&&&@#@&#@@@O#&@&&@# ==#  ##&@&@## @&:=  >#&@@# =&=:@@  ##@== @ :&  &# &====   #: &.=&. @ @@ @#@:  & ==    ",
".& : =>    = &= &@#.=> #&@##&@ # @# #@  &#=X# &# &@&@#>:#&==##@##@ #@&&> ##&&#  : &  :==:=##  &:.&& # @=. =&#   # # #:&>&&@&:=#:",
">.  &=. :>@&#=.# &@=&>@&#:  =###:@&: # @#&=&@&&& :& # X&#.==## @# :*@=:=  #:=   = &  &.&X=@&# > =>:   X=. = :>  &## @&:.&& :   =",
".=:XX:=&== &&>.&:& >&= #&#  =##:&  &&# &&::>@:& &&: &&=&=.== &##  >##:&> #&&&:&&= && &>&.&#X=>=>=::> :.:. :&&> & # &&&X>>& =&&>=",
"=&&X=:&&:  .==> #= = &# @ && ##& # && >&& &:#:&@  == #>& #&  >##  &@@>==#@ &#   :&&  :.:>  .=>:=.&#>&=.== = &= @&  #& :=&##:#&=:",
"=& === &>::>:=.&@&=.&####::&#@##::::=&:&&&: :: # &>=#>&: &:@:.  @  # .>=## & &&&:#::=.&= :&: &::=<  :.> =&  & :&>&@ =&&  &#& && ",
":<&=.=>&:: &:=.X &X.:@### # :@* &:>&&=#  :=:& & #&::# &: &:#:. :#   =:=> # & :&&:# &:>><===:& :&>:::X.: .&& & &=&#@ =&:#&&:&& &&",
":>>.=:&<.=& #>>.#&&.>&*#### :@#&#&> #:# # =<&    :=:**:&# &#:&#># &&>::> #&& && =##  &=>.>=:.=>=:&& X<>>>&>&&&:> #@ &&& &&::>:&&",
"&&>.>: ==:& #==<@# X=>@### : ## @&& @& @# :> &&# &=  #& :#:@&& &#@ #X>=>&@&   ##= &## &===:>.=&X &> &.=== .:=<&&  && :##:&&==> #",
"& X.>& &&&==>&&> @: >=@ ###   ##&&:&#:& &#&=:& #&&:#:& :& :#:< &#  #>=::&#   &&#> &  :#>>&&==>=.:&&&&>=: #=:<& ::&==::= :&..=&# ",
" :=.>:&:&:>=:>&>&&&&&>*#### & &#*:> #:&#: :>: :#&&##:  &: &&:&& ##&#:&#&:   #&& #:&:&&:=>>:=<&:>>=> &=::  X:&& :&&:&&=.&:=>:&&&&",
":==:.>:&&:::=.&::>:##  #####: &# &:#  &#  :>:&&:& &##&:&:#:=&:& #: #<&#==&# # &&#:   &&&#X>& &# =..>=.:&&>&&&: :&&:&::::>>&:=&>&",
":.>&>>X::&>>:.=&:::&:&###&#&&#  & &#&#:## &::<::# &#&>:#&&:=& #:   #&# >> # #&&&&= # ::&:.> ::#:>=.>>. &:>& :&&&&&:::::==: =:=>&",
"X.: >.==:::>&=: >>>:.:+ &+#  :&&  :#&#&##  > &==  & # : :&&>>:==&& &:  =.##&#&>&&= &&:.>:>X:>& :>=>.><=:&.=&#&  &&&>::=::.&=:><:",
"==>=><>.====:X& =..=<:+  ####&&:& :&##&#  :.&&>= =:   =:= :&:&&:&&#&&#+&. #&  =  &  :X>===:&.:=>>>Xo=<= &..& #&:&=>=<:=>>.:&&=.:",
":&..=<:=:>>><> &&.<>>:#  ####: & #>:#   & &>&=>& :< & ==: > =& & :#=&*  <& &    # ::=.=&&=:=....>=:.>.:>:=.==##:&:<&>:==:>> =::&",
"<:>:&>=:&>>.<=#& <.&==#: #&##&& #:==&##&& &:&:&#::&## :::&>&:=:& &  & # &&&&& & #&&&:>&  ==<=>>:..: :>>.&<.::&#:&&:# &:>===&:=&&",
"<:=&==< ::==>& :&><>>=&&& >### = &=>=# =& &= &: >:>   &=>#>==: =#:#:&=  &:& :&& && = &>& = =:= ==.:<&=..:&>&>:&&&&&& & =<>::===:",
" =&>>.= >.<.=:<=::...=  &:>##+ .> =<>##& &  # ::::<:  &>=::=.>:>  :& =&# : :&<  &&  &::#.=== &>=>::=:==>>#&&=&>=&&&&:#&::&:>==.&",
" &&==.=:>.=>> >=:<...<  #::    >&&# : =  = ## &&>:=<:# =&&&>>< &&   #&&& &=     &: =&&  =&:= &.&&==>=><== > & <=: &&&&=::>=.  & ",
"&&=&&=>:>>=.=&>=&:=.= &    =& &= #  ##&& =   &  :.=..  :=&  =: & =  # =& == &&  >&:=&   &&&  &==>&&>==:=.&& &:=:>=& &&=:&&&: =::",
">:=&===>>.>.:.. #=>>= &&&## & &:#=  :# &## && = =.:.=&#&&:: :=#=#&  #&=: &: && &= ::&#&&&=>==&= > : &=:==#:& :::>:  &>.    ==:&>",
":<=>=:&.>.>>=..= .>.> &&=   = =&&& = :: & &=& &=>&:=X:  &= &:& = &#:&==>&&=&& & &=&&  :&=&><> >==&>&= .>= == &===>  ==&  =&=>& >",
"&<.= :=.>..==.=>=<o.>>  &&  =#== &   && ==>&:&&>.>=>>>=#&= >:====  ===<>>=&&>&& &=&& &&== =o> << =>&< <&>><< &>==.&=<: :&  &:.=&",
".:>&=&<=>..:<.>&=.<==X& &= :& &>:=&+  < ==X======>..==&&&>&==:&= & # =>=<>& &&  =>& &=:.&#:==>>&#<X>>&<:=>=:&=< >.==o=:>> &::==&",
"=:= ::.=>=<==:= =.>&>>=  & && &:&=:  &< == =&><<>.>>>==&==&&==:= && X==&.==&=& ==>  &&>.&&&=:>:= :&=&=.X>=& &==&>=&><: <>&:=& =>",
">= &=&.X<=.>>&  .<= =>=&    &&== &= &   =&&&&&=>>.>>=>&&&>=&>&=== &  &=&>== =:&=:=&&&=<>>=&:&>&&&&&& &=.>=:=&==&&>:=<==>&==& &=:",
"=>= & >:><.<. &&<.=&&>>&&& &  ==:& =:  &=&&= X>&=.<>=& =&::&:&.>&=&&& < ===  &&&&& &&><>>= &&<&:>&&&&=>>>> & &>&&.&X<>> &:>&  & ",
"=&X & >>>=>>==&&..=&>X>== & :&>&  ::&&&>=&<: X<>=>&>>= =: &=:&<.=& >&&&: =&  && && =&.>= =& =& >>&=::&:>>>:X&:=:&>>==>= = =>&   ",
"=&<&& =>>&>>&: X.>:&=X>:& : ==&: & ==&&=&=><&&>>.&>.>=&&X  =&<<.X==&&=  ===    &&: ==.>======:&.::===&.>&=&<&X== :>..>>=.  == &:",
">=:X==<=> ==:&&>o==:&&>< :::.::&&==o: &X :><&:<=>& <<=:=<&&.=>o<o&=&:&&:XX= &&: :< =>X=>:>:<:&=<::><:=>>&=&==><==:=o:=<:o<=:= =&",
"<=&>=<:&<:&&= =>>=::& <.=:&oX & &&>=  =. ===&==&: :>>&:=&:<<>>>>=&=:: &====&==& =>==XX=>::=::<:=&: <=::= =&:.>>>=:== = >><<&&&==",
"o.=&><&&<&&&<=>== <:&=>>= &.<:    <=  => &<X&>&&&&<>=&&:&==&=..>&&< & &:=&==&= &&><=....&&=:<> ::&=>=&&& <X<>o===&:= &&:==& =::>",
"X<:==:&== ::==>>X:<:=X.==& X==   =:>  =<  <===&:==<=:& :X====X.>==: &&==&== =: & <<&oo><& =>o= :&:>.::>:=>o.:.=:&&: &:X===:&=  o",
"o::X<::>&::X>:==:==::=:>= &&==:= =::  ==& =<=&&==>=:&& =:=::======&&  ::><::&::  ==><<>>>&=<=:=&<:>>::&:X<o::=& &::::&X&:=:::& =",
"< >==:::: &<< :>&=::<=<<<&& :=::::&&&&=<& ===:&&=<:=  &o&:<&==&X=:&: &:><>::=<= :=:>o=:<&<<<==& =:&:::::<== =:&&&:::: ::&<===  <"
};
